<svg xmlns="http://www.w3.org/2000/svg" id="Layer_1" width="105" height="105" viewBox="0 0 105 105"><style id="style2">.st0{enable-background:new}.st1{fill:#fff}.st2{fill:#0eb550}.st3{fill:#fff;stroke:#fff;stroke-width:.5}</style><g id="Page-1" transform="translate(0 5.2)"><g id="Group-4"><g id="g3709" transform="translate(-1.16 -.92)"><g id="Group" transform="translate(2 -2)"><path id="Oval-52-Copy-4" fill="#0eb550" d="M43 99.8c18.18-.57 35.92-8.41 49.12-20.82 7.7-7.36 13.04-18.62 9.65-29.3-3.92-14.18-14.25-25.59-25.32-34.8C66.7 7.03 55.05.15 42.23 0 29.29.57 18.76 10.09 11.99 20.43 2.85 34.3-2.72 51.8 1.51 68.3 6.49 86.42 24.07 100.17 43 99.8z"/><path id="Shape-Copy-3" fill="#fff" stroke="#fff" stroke-width=".5" d="M31.8 35.2c-3.35 3.56.7 8.71 5.17 7.2 1.96.85 5.88-1.26 2.45-2.3-2-.19-4.2.46-6.02-.5-.97-5.82 8.47-2 11.94-3.1 5.81.05 11.64-.12 17.44.1 2.87 2.43-1.08 4.4-3.46 3.6-4.35.12-8.77-.25-13.08.19-3.77 1.84-2.37 6.58-2.64 10.03.09 5.6-.18 11.22.14 16.8-.06 3.35 3.52 5.55 6.52 4.59 2.63-1.12 3.94-4.04 3.74-6.82V47.6c-3.25-2.8-2.42 3.16-2.5 5.25-.12 4.73.24 9.52-.19 14.22-2.33 4.97-6.14-.09-4.91-3.63V44.4c.66-2.77 4.37-1.18 6.56-1.6 3.66-.14 7.39.32 10.99-.31 3.74-1.63 3.14-8.03-.95-8.49-9.52-.23-19.07-.04-28.6-.1-.8.32-2.34.26-2.6 1.3z"/></g></g></g></g></svg>