<svg width="43" height="32" viewBox="0 0 43 32" xmlns="http://www.w3.org/2000/svg"><g fill="none" fill-rule="evenodd"><path d="M-3-9h50v50H-3z"/><path d="M42.712 4.987c-5.47 2.69-8.206 5.852-8.206 9.484 2.332.27 4.26 1.222 5.784 2.859 1.525 1.636 2.287 3.53 2.287 5.683 0 2.287-.74 4.215-2.22 5.785-1.479 1.569-3.34 2.354-5.582 2.354-2.511 0-4.686-1.02-6.524-3.06-1.839-2.04-2.758-4.518-2.758-7.433 0-8.744 4.888-15.582 14.663-20.514l2.556 4.842zm-24.618 0c-5.515 2.69-8.273 5.852-8.273 9.484 2.377.27 4.327 1.222 5.852 2.859 1.525 1.636 2.287 3.53 2.287 5.683 0 2.287-.751 4.215-2.253 5.785-1.502 1.569-3.375 2.354-5.617 2.354-2.51 0-4.674-1.02-6.49-3.06-1.816-2.04-2.724-4.518-2.724-7.433C.876 11.915 5.74 5.077 15.47.145l2.623 4.842z" fill="#528FF0"/></g></svg>