<svg width="418" height="247" xmlns="http://www.w3.org/2000/svg" xmlns:xlink="http://www.w3.org/1999/xlink"><defs><rect id="a" width="418" height="279" rx="4"/><path id="c" d="M0 218.125264V.37060565h577.409498V488.96661H0V218.125264h577.409522v270.84154H-.0002164v-270.84154z"/><path id="e" d="M0 .76223015V271.807349h577.409522V.76223015z"/></defs><g transform="translate(0 -32)" fill="none" fill-rule="evenodd"><mask id="b" fill="#fff"><use xlink:href="#a"/></mask><g mask="url(#b)"><g transform="translate(-65 31)"><mask id="d" fill="#fff"><use xlink:href="#c"/></mask><path d="M4.59312845 383.183147c-6.1242995 2.88044-6.1242995 7.595475-.00096173 10.476885L204.252217 486.805261c6.124299 2.88141 16.144569 2.88238 22.268868.00097l346.295092-162.897674c6.124299-2.88044 6.124299-7.594505.000961-10.475915l-199.660049-93.146199c-6.123338-2.88141-16.14457-2.88141-22.267907-.00097L4.59312845 383.183147z" fill="#0E192B" mask="url(#d)"/></g><path fill="#E0E0E0" d="M487 353l-192-88.702162V257l192 88.702162z"/><path fill="#FFF" d="M301 259.614711L306.639377 257 483 338.57704V344z"/><path d="M510.281669 178.584828c-.665518-.539821-1.485874-1.047602-2.464915-1.507809l-199.66005-93.2162128c-6.123338-2.8835762-16.143607-2.8835762-22.267907-.0009709L-60.40725624 246.879952c-.45393677.214569-.87132779.439818-1.25890516.671863l-3.33335773-1.128187v6.348722l.06155074-.000971c.3096772 1.677717 1.81767055 3.315628 4.53071215 4.593333L139.252794 350.579954c6.123337 2.883576 16.143607 2.884547 22.267906.000971l346.296054-163.020117c3.149667-1.482565 4.674971-3.450582 4.584569-5.405006v-5.919584l-2.119654 2.34861z" fill="#1169D3" opacity=".46144701"/><g transform="translate(-65 74.690548)"><mask id="f" fill="#fff"><use xlink:href="#e"/></mask><path d="M4.59334485 165.181949c-6.1242995 2.882605-6.1242995 7.601184-.00096173 10.484761L204.252433 268.881951c6.1243 2.883576 16.144569 2.884547 22.268869.000971l346.295091-163.020116c6.1243-2.882606 6.1243-7.6002139.000962-10.4837901L373.157305 2.16280353c-6.123338-2.8835762-16.144569-2.8835762-22.267907-.0009709L4.59334485 165.181949z" fill="#D5E4F7" mask="url(#f)"/></g><path d="M168.070854 253.391591c-.816509.37768-.80593.970901.023082 1.318484l30.253155 12.692589c.829011.347583 2.175434.32331 2.991943-.053399l12.297647-5.664237c.816509-.377681.80593-.970901-.023081-1.318484l-30.253155-12.69259c-.829973-.348553-2.176396-.32428-2.991944.0534l-12.297647 5.664237zm9.28695-19.647348c-1.221397.574773-1.221397 1.516547 0 2.09132l44.571398 20.98894c1.221398.575744 3.220835.575744 4.442233 0l69.078213-32.51839c1.221398-.574773 1.221398-1.516547 0-2.091321l-44.571398-20.988939c-1.222359-.575745-3.220835-.575745-4.442233 0l-69.078213 32.51839z" fill="#4646AA" opacity=".10665761"/><path d="M89.152215 244.342016c-.969424.456324-.969424 1.202947 0 1.65927l35.367638 16.654837c.969424.456324 2.555317.457295 3.524742.000971l54.813827-25.804609c.969424-.456323.969424-1.202946 0-1.65927l-35.367638-16.654837c-.969424-.456323-2.555317-.456323-3.524742 0l-54.813827 25.803638z" fill="#4646AA" opacity=".10665761"/><path d="M95.141873 243.781903c-1.109837.522345-1.109837 1.377709 0 1.900054l27.288139 12.181896c1.109837.522344 2.926546.522344 4.036383 0l48.327917-22.75598c1.110798-.522345 1.110798-1.377709 0-1.901024l-27.287178-12.180925c-1.109837-.522345-2.926546-.523316-4.036383 0l-48.328878 22.755979z" fill="#14145E"/><path d="M171.229369 233.80871l.025005-2.503953-9.174908 1.690338-16.442706-7.340012c-1.012702-.476712-2.668802-.476712-3.681504-.000971l-25.416612 11.945967-19.442343 3.581654v2.640851l.099058-.018447c.097135.229133.285634.450498.660709.627202l24.884776 11.10905c1.012702.475742 2.668802.475742 3.681504 0L170.521536 234.8c.574153-.270881.785734-.63594.707833-.99129" fill="#0E192B"/><path d="M97.85578 240.19889c-1.012702.476712-1.012702 1.256346 0 1.733058l24.884775 11.109051c1.012702.476712 2.668802.476712 3.681504 0l44.073222-20.753011c1.012702-.475741 1.012702-1.256346 0-1.733058l-24.884776-11.10808c-1.012702-.476712-2.668802-.476712-3.681504-.000971L97.85578 240.19889z" fill="#273C5B"/><path d="M146.56685 234.440184c.321218 4.003996-5.688636 7.762355-13.42191 8.394411-7.734237.632057-14.263425-2.102001-14.584642-6.105997-.321218-4.004967 5.687673-7.763325 13.42191-8.39441 7.734236-.632057 14.263424 2.102 14.584642 6.105996" fill="#0E192B"/><path fill="#0E192B" d="M123.567547 238.855454l14.586566-6.774948v-17.226697l-14.586566 6.787569z"/><path d="M83.724305 238.806812c0 2.281618 1.678219 3.364172 3.729591 2.405893l80.482412-39.376835c2.051371-.958279 3.729591-3.608839 3.729591-5.890457V35.43216342c0-2.28161753-1.67822-3.36417224-3.729591-2.40589287L87.453896 72.4031055c-2.051372.9582794-3.729591 3.6088393-3.729591 5.8904569V238.806812z" fill="#0E192B"/><path d="M167.936212 33.02588219l-2.779401 1.36023241V203.195714l2.779401-1.360232c2.051371-.95828 3.729591-3.60884 3.729591-5.890457V35.43177506c0-2.28161753-1.67822-3.36417224-3.729591-2.40589287" fill="#273C5B"/><path fill="#D3E1F2" d="M169.618182 112.1233482l-2.413943 1.0068244v10.6187451l2.413943-1.0068244z"/><path d="M278.290357 203.907384c-.639551.30098-.639551.794198 0 1.095177l23.335428 10.988658c.63955.30098 1.685913.30098 2.325464 0l36.164912-17.02475c.63955-.300979.63955-.794197 0-1.095177l-23.334466-10.988658c-.639551-.300979-1.686875-.300979-2.326426 0l-36.164912 17.02475z" fill="#5B97D8"/><path d="M248.359671 179.015908c-.969425.456324-.969425 1.202947 0 1.65927l35.367637 16.654837c.969424.456324 2.555318.457295 3.524742.000971l54.813827-25.804609c.969424-.456323.969424-1.202946 0-1.65927L306.69824 153.21227c-.969425-.456323-2.555318-.456323-3.524742 0l-54.813827 25.803638z" fill="#4646AA" opacity=".10665761"/><path d="M329.922491 168.482602l.025005-2.503954-9.174908 1.690339-16.442706-7.340012c-1.012702-.476712-2.668802-.476712-3.681504-.000971l-25.416612 11.945967-19.442343 3.581654v2.640851l.099058-.018447c.097135.229133.285634.450498.660709.627202l24.884775 11.10905c1.012703.476713 2.668802.476713 3.681505 0l44.099188-20.740389c.574153-.270881.785733-.63594.707833-.99129" fill="#0E192B"/><path d="M256.548901 174.872685c-1.012702.476712-1.012702 1.256346 0 1.733058l24.884776 11.10905c1.012702.476713 2.668802.476713 3.681504 0l44.073221-20.75301c1.012702-.475742 1.012702-1.256346 0-1.733059l-24.884775-11.108079c-1.012702-.476712-2.668802-.476712-3.681504-.000971l-44.073222 20.753011z" fill="#273C5B"/><path d="M305.259876 169.114076c.321218 4.003996-5.688636 7.762354-13.421911 8.394411-7.734236.632057-14.263424-2.102001-14.584642-6.105997-.321218-4.004967 5.687674-7.763325 13.42191-8.39441 7.734237-.632057 14.263425 2.102 14.584643 6.105996" fill="#0E192B"/><path d="M351.086428 38.02786745l-1.668603-.9893482c-.147144-.11650813-.308715-.21359824-.482788-.28641582l-.009618-.0048545-.000961.0019418c-.634743-.26117239-1.433941-.22427815-2.301421.1805876L227.970504 92.366288c-2.052333.9582794-3.731514 3.6107811-3.731514 5.8933696v80.4042014c0 1.031097.345261 1.814614.909797 2.278705l-.000962.001942.012503.006796c.187537.15049.398156.266027.62801.34467l1.835943 1.009737-.627048-.929152c.310639-.051458.635704-.148548.973271-.305834l118.652533-55.4355387c2.052332-.9592502 3.731514-3.6107811 3.731514-5.8933695V39.337613c0-.49807225-.084633-.93497774-.229854-1.30974555h.961731z" fill="#273C5B"/><path d="M226.537237 179.893311c0 2.281618 1.67822 3.364173 3.729591 2.405893l118.594829-55.4083533c2.050409-.9582794 3.728629-3.6088393 3.728629-5.8904568V40.64473712c0-2.28161753-1.67822-3.36514313-3.728629-2.40686377L230.266828 93.6471978c-2.051371.9582794-3.729591 3.6088393-3.729591 5.8904569v80.3556563z" fill="#0E192B"/><path fill="#0E192B" d="M282.260573 173.529346l14.586565-6.774948v-17.226697l-14.586565 6.787569z"/><path d="M226.537237 178.101028v1.792283c0 2.281618 1.67822 3.364173 3.729591 2.405893l118.594829-55.4083533c2.050409-.9582794 3.728629-3.6088393 3.728629-5.8914277v-1.8884026L226.537237 178.101028z" fill="#273C5B"/><path d="M286.187222 154.239678c0 .053399.039431.078643.087517.056312l6.559002-3.069018c.048087-.022331.087518-.084469.087518-.137868v-1.876752c0-.0534-.039431-.078643-.087518-.056312l-6.559002 3.068047c-.048086.023302-.087517.084468-.087517.137868v1.877723zm-37.84794 37.346875c.435664 1.825294-.954998 2.820467-2.121578 3.373881l-65.693883 31.282433c-1.167541.553413-1.776316-.233987-2.121577-1.360233l-11.013738-50.596568c-.421237-1.829177.869405-3.21174 2.036946-3.765154l65.693883-31.185343c1.166579-.554384 1.877298-.005825 2.121577 1.359262l11.09837 50.891722z" fill="#D3E1F2"/><path d="M294.899634 218.259827v-2.039863l-1.264675.80876-42.241125-19.891821c-1.168503-.550501-3.081384-.550501-4.249887 0l-65.881421 31.013493-1.077138-.771866v1.989376c-.014426.370884.276017.744681.873251 1.025271l42.640243 20.880199c1.168503.550501 3.081385.550501 4.249887 0l66.084346-31.909635c.640513-.300979.927108-.707787.866519-1.103914" fill="#BAC0E2"/><path d="M181.059216 226.352967c-1.168502.550501-1.168502 1.450526 0 2.001027l42.640243 20.079205c1.168503.550501 3.080423.550501 4.248925 0l66.085308-31.109612c1.168503-.54953 1.168503-1.450526 0-2.001027l-42.640243-20.079205c-1.168502-.550501-3.080422-.550501-4.249887 0l-66.084346 31.109612z" fill="#D3E1F2"/><path d="M242.10121 198.718986l.002885-.000971-.008656-.006796c-.023081-.024273-.05578-.044661-.086555-.066021l-1.02809-.784488-30.521478 14.467397-17.800669 8.408974c-.143298.066992-.269284.138839-.384692.210685l-1.293527.612639.958845.599046c.632819.298067 1.992705.145635 3.022719-.338845l46.208263-21.829739c.879983-.414575 1.238708-.940804.930955-1.271881" fill="#2B3D68"/><path d="M274.63732 210.324361l-24.462576-11.437215c-1.009817-.475741-2.662069-.475741-3.671886 0l-57.46051 27.236688c-1.009817.475742-1.009817 1.253433 0 1.729175l24.739554 11.258569c1.009817.475741 2.66207.475741 3.671887.000971l57.183531-27.059013c1.009817-.475742 1.009817-1.253434 0-1.729175" fill="#C0D6F4"/><path d="M236.706094 231.835354c-.402965.190297-.402965.500985 0 .690311l9.914479 4.426338c.403927.189325 1.063674.190296 1.466639 0l22.8084-10.737195c.402965-.189326.402965-.500014 0-.690311l-9.91448-4.426338c-.403926-.189326-1.063673-.189326-1.466638 0l-22.8084 10.737195z" fill="#E2F0FF"/><path d="M194.961607 221.820121l46.208263-21.82974c.836705-.393215 1.195431-.886433.964616-1.219452l-49.966706 23.465709c.693408.181558 1.873451.016505 2.793827-.416517m52.96817-30.322697c.431817 1.806847-.945381 2.791341-2.100419 3.3399l-65.029328 30.965919c-1.155038.547588-1.758043-.232046-2.100419-1.34664L167.798396 174.3717c-.417391-1.810731.860749-3.17873 2.015787-3.727289l65.029328-30.8698c1.155038-.547588 1.858063-.004855 2.100419 1.34664l10.985847 50.376173z" fill="#162D59"/><path d="M255.634296 235.400406c.860749.292241.790542.32331 1.494529 0s7.366855-3.449612 8.141048-3.804962c.774193-.355349.630895-1.028184 1.009817-1.205859 0 0-.582808-.221365-1.115607 0-.532799.220395-7.574589 3.51272-8.510353 3.971956-.934802.459237-1.019434 1.038865-1.019434 1.038865m-58.93686122-8.0830435h.00192346l.00480865-.4271965-.63281864.1087409-1.12522462-.5204029c-.0692446-.0339816-.18369052-.0349525-.25389684-.0029127l-1.78016306.8213823-1.34065225.2291326-.00577038.4369055.00673211-.0019418c.00673211.0165053.01923461.0320397.04520133.0436906l1.70322463.7874007c.06924459.0339816.18272878.0349525.25293511.0029127l3.07369051-1.4097483c.04039268-.0184471.05481864-.0436906.05000999-.0679631" fill="#E2F0FF"/><path d="M191.6241143 227.4593082c-.07020631.0320398-.07116804.0854393-.00192345.1194209l1.70322462.7864298c.0692446.0339816.18369052.0359234.25389684.0038836l3.07369052-1.4107192c.07020632-.0320398.07116805-.0854393.00192346-.1194209l-1.70322463-.7864298c-.06924459-.0339816-.18369051-.0359234-.25389683-.0038836l-3.07369052 1.4107192z" fill="#FFF"/><path d="M200.928087 225.308374h.0019235l.0048086-.4271965-.6328186.1087409-1.12522463-.5204029c-.06924459-.0330107-.18369051-.0349525-.25389684-.0029127l-1.78016306.8213823-1.34065224.2291326-.00577039.4369055.00673212-.0019418c.00673211.0165053.01923461.0320397.04520133.0436905l1.70322462.7874008c.0692446.0339816.18272879.0349525.25293511.0029127l3.07369048-1.4097483c.0403927-.0184472.0548187-.0436906.05001-.0679631" fill="#E2F0FF"/><path d="M195.85486273 225.4503197c-.07020632.0320398-.07116805.0854393-.00192346.1194209l1.70322462.7864298c.0692446.0339816.18369052.0359234.25389684.0038836l3.07369047-1.4107192c.0702064-.0320398.0711681-.0854393.0019235-.1194209l-1.70322462-.7864298c-.06924459-.0339816-.18369051-.0359234-.25389684-.0038836l-3.07369051 1.4107192z" fill="#FFF"/><path d="M205.1588354 223.2993855h.0019235l.0048087-.4271965-.6328187.1087409-1.1252246-.520403c-.0692446-.0330106-.1836905-.0349524-.2538968-.0029127l-1.7801631.8213824-1.34065225.2291326-.00577039.4369055.00673212-.0019418c.00673211.0165053.01923461.0320397.04520133.0436905l1.70322459.7874008c.0692446.0339816.1827288.0349525.2529351.0029127l3.0736906-1.4097483c.0403926-.0184472.0548186-.0436906.0500099-.0679631" fill="#E2F0FF"/><path d="M200.08551498 223.4413312c-.07020633.0320398-.07116806.0854393-.00192347.1194208l1.70322459.7864299c.0692446.0339816.1836906.0359234.2538969.0038836l3.0736905-1.4107192c.0702063-.0320398.071168-.0854393.0019235-.1194209l-1.7032247-.7864298c-.0692446-.0339816-.1836905-.0359234-.2538968-.0038836l-3.07369052 1.4107192z" fill="#FFF"/><path d="M209.3894877 221.290397h.0019234l.0048087-.4271965-.6328186.1087409-1.1252247-.520403c-.0692446-.0339815-.1836905-.0349524-.2538968-.0029127l-1.7801631.8213823-1.3406522.2291327-.0057704.4369055.0067321-.0019418c.0067321.0165053.0192346.0320397.0452014.0436905l1.7032246.7874008c.0692446.0339815.1827288.0349524.2529351.0029127l3.0736905-1.4097484c.0403927-.0184471.0548186-.0436905.05001-.067963" fill="#E2F0FF"/><path d="M204.3162634 221.4323427c-.0702063.0320397-.0711681.0854393-.0019235.1194208l1.7032247.7864299c.0692446.0339815.1836905.0359234.2538968.0038836l3.0736905-1.4107192c.0702063-.0320398.0711681-.0854393.0019235-.1194209l-1.7032247-.7864299c-.0692445-.0339815-.1836905-.0359233-.2538968-.0038836l-3.0736905 1.4107193z" fill="#FFF"/><path d="M213.6202361 219.2814085h.0019235l.0048086-.4271965-.6328186.1087409-1.1252246-.520403c-.0692446-.0339815-.1836906-.0349524-.2538969-.0029127l-1.780163.8213823-1.3406523.2291327-.0057704.4369055.0067321-.0019418c.0067322.0165053.0192347.0320397.0452014.0436905l1.7032246.7874008c.0692446.0339815.1827288.0349524.2529351.0029127l3.0736905-1.4097484c.0403927-.0184471.0548187-.0436905.05001-.067963" fill="#E2F0FF"/><path d="M208.5470118 219.4233542c-.0702063.0320397-.071168.0854393-.0019234.1194208l1.7032246.7864299c.0692446.0339815.1836905.0359233.2538968.0038836l3.0736905-1.4107193c.0702064-.0320397.0711681-.0854393.0019235-.1194208l-1.7032246-.7864299c-.0692446-.0339815-.1836905-.0359233-.2538969-.0038836l-3.0736905 1.4107193z" fill="#FFF"/><path d="M217.8509845 217.27242h.0019235l.0048086-.4271965-.6328186.1087409-1.1252246-.520403c-.0692446-.0330106-.1836905-.0349524-.2538969-.0029127l-1.780163.8213823-1.3406523.2291327-.0057704.4369055.0067322-.0019418c.0067321.0165053.0192346.0320397.0452013.0436905l1.7032246.7874008c.0692446.0339815.1827288.0349524.2529351.0029127l3.0736905-1.4097484c.0403927-.0184471.0548187-.0436905.05001-.067963" fill="#E2F0FF"/><path d="M212.7776641 217.4144628c-.0702064.0320397-.0711681.0854393-.0019235.1194208l1.7032246.7864299c.0692446.0339815.1836905.0359233.2538969.0038836l3.0736905-1.4107193c.0702063-.0320397.071168-.0854393.0019234-.1194208l-1.7032246-.7864299c-.0692446-.0339815-.1836905-.0359233-.2538968-.0038836l-3.0736905 1.4107193z" fill="#FFF"/><path d="M222.0816368 215.2634314h.0019234l.0048087-.4271964-.6328187.1087409-1.1252246-.520403c-.0692446-.0330106-.1836905-.0349524-.2538968-.0029127l-1.7801631.8213823-1.3406522.2291327-.0057704.4369055.0067321-.0019418c.0067321.0165053.0192346.0320397.0452013.0436905l1.7032247.7874008c.0692446.0339815.1827288.0349524.2529351.0029127l3.0736905-1.4097484c.0403927-.0184471.0548186-.0436905.05001-.0679631" fill="#E2F0FF"/><path d="M217.0084125 215.4054743c-.0702063.0320397-.0711681.0854393-.0019235.1194208l1.7032246.7864299c.0692446.0339815.1836906.0359233.2538969.0038836l3.0736905-1.4107193c.0702063-.0320397.0711681-.0854393.0019235-.1194208l-1.7032247-.7864299c-.0692446-.0339815-.1836905-.0359233-.2538968-.0038836l-3.0736905 1.4107193z" fill="#FFF"/><path d="M226.3123852 213.2544429h.0019235l.0048086-.4271964-.6328186.1087409-1.1252247-.520403c-.0692445-.0339815-.1836905-.0349524-.2538968-.0029127l-1.7801631.8213823-1.3406522.2291327-.0057704.4369054.0067321-.0019418c.0067321.0165054.0192346.0320398.0452014.0436906l1.7032246.7874008c.0692446.0339815.1827288.0349524.2529351.0029127l3.0736905-1.4097484c.0403927-.0184471.0548186-.0436905.05001-.0679631" fill="#E2F0FF"/><path d="M221.2390647 213.3964858c-.0702063.0320397-.071168.0854393-.0019234.1194208l1.7032246.7864299c.0692446.0339815.1836905.0359233.2538968.0038836l3.0736905-1.4107193c.0702064-.0320397.0711681-.0854393.0019235-.1194208l-1.7032246-.7864299c-.0692446-.0339815-.1836905-.0359233-.2538969-.0038836l-3.0736905 1.4107193z" fill="#FFF"/><path d="M230.5430374 211.2454544h.0019235l.0048087-.4271964-.6328187.1087409-1.1252246-.520403c-.0692446-.0339815-.1836905-.0349524-.2538968-.0029127l-1.7801631.8213823-1.3406523.2291327-.0057703.4369054.0067321-.0019418c.0067321.0165054.0192346.0320398.0452013.0436906l1.7032246.7874008c.0692446.0339815.1827288.0349524.2529351.0029127l3.0736906-1.4097484c.0403926-.0184471.0548186-.0436905.0500099-.0679631" fill="#E2F0FF"/><path d="M225.4698131 211.3874973c-.0702063.0320397-.071168.0854392-.0019234.1194208l1.7032246.7864299c.0692446.0339815.1836905.0359233.2538968.0038836l3.0736906-1.4107193c.0702063-.0320397.071168-.0854393.0019234-.1194208l-1.7032246-.7864299c-.0692446-.0339815-.1836905-.0359233-.2538968-.0038836l-3.0736906 1.4107193z" fill="#FFF"/><path d="M234.7737859 209.23646592h.0019234l.0048087-.42719648-.6328187.10874092-1.1252246-.52040297c-.0692446-.03301064-.1836905-.03495244-.2538968-.00291271l-1.7801631.82138231-1.3406522.22913266-.0057704.43690548.0067321-.0019418c.0067321.01650532.0192346.03203977.0452013.04369057l1.7032246.7874008c.0692446.0339815.1827288.0349524.2529352.0029127l3.0736905-1.40974841c.0403927-.01844712.0548186-.04369055.05001-.06796307" fill="#E2F0FF"/><path d="M229.7004654 209.37850874c-.0702063.03203974-.0711681.0854393-.0019235.11942084l1.7032247.78642982c.0692445.0339816.1836905.0359234.2538968.0038837l3.0736905-1.41071931c.0702063-.03203974.0711681-.0854393.0019235-.11942083l-1.7032247-.78642988c-.0692445-.03398154-.1836905-.03592334-.2538968-.0038836l-3.0736905 1.41071926z" fill="#FFF"/><path d="M239.0044381 207.22747741h.0019235l.0048086-.42719648-.6328186.10874092-1.1252246-.52040297c-.0692446-.03301064-.1836906-.03495244-.2538969-.00291271l-1.780163.82138231-1.3406523.22913266-.0057704.43690548.0067321-.0019418c.0067322.01650532.0192346.03203974.0452014.04369055l1.7032246.78740077c.0692446.03398154.1827288.03495244.2529351.00291271l3.0736905-1.40974837c.0403927-.01844712.0548187-.04369055.05001-.06796307" fill="#E2F0FF"/><path d="M233.9312138 207.36952023c-.0702063.03203974-.071168.0854393-.0019235.11942084l1.7032247.78642987c.0692446.03398154.1836905.03592334.2538968.0038836l3.0736905-1.41071926c.0702064-.03203974.0711681-.0854393.0019235-.11942083l-1.7032246-.78642988c-.0692446-.03398153-.1836906-.03592334-.2538969-.0038836l-3.0736905 1.41071926z" fill="#FFF"/><path d="M243.2351865 205.21858599h.0019235l.0048086-.42719648-.6328186.10874092-1.1252246-.52040297c-.0692446-.03301064-.1836905-.03495244-.2538969-.00291271l-1.780163.82138232-1.3406523.22913265-.0057704.43690548.0067322-.0019418c.0067321.01650532.0192346.03203974.0452013.04369055l1.7032246.78740077c.0692446.03398154.1827288.03495244.2529351.00291271l3.0736905-1.40974837c.0403927-.01844712.0548187-.04369054.05001-.06796307" fill="#E2F0FF"/><path d="M238.1619622 205.36053173c-.0702063.03203973-.071168.08543929-.0019234.11942083l1.7032246.78642987c.0692446.03398154.1836905.03592334.2538968.00388361l3.0736905-1.41071927c.0702064-.03203974.0711681-.08543929.0019235-.11942083l-1.7032246-.78642988c-.0692446-.03398153-.1836905-.03592333-.2538969-.0038836l-3.0736905 1.41071927z" fill="#FFF"/><path d="M247.4659349 203.20959748h.0019235l.0048087-.42719647-.6328187.10874092-1.1252246-.52040298c-.0692446-.03398154-.1836905-.03495244-.2538968-.0029127l-1.7801631.82138231-1.3406523.22913265-.0057703.43690549.0067321-.00194181c.0067321.01650532.0192346.03203974.0452013.04369055l1.7032246.78740078c.0692446.03398153.1827288.03495243.2529351.0029127l3.0736906-1.40974837c.0403926-.01844712.0548186-.04369054.0500099-.06796307" fill="#E2F0FF"/><path d="M242.3926145 203.35154322c-.0702063.03203973-.0711681.08543929-.0019235.11942083l1.7032246.78642987c.0692446.03398154.1836906.03592334.2538969.00388361l3.0736905-1.41071927c.0702063-.03203973.071168-.08543929.0019235-.11942083l-1.7032247-.78642987c-.0692446-.03398154-.1836905-.03592334-.2538968-.00388361l-3.0736905 1.41071927z" fill="#FFF"/><path d="M251.6965872 201.20060897h.0019234l.0048087-.42719647-.6328186.10874092-1.1252247-.52040298c-.0692446-.03398154-.1836905-.03495244-.2538968-.0029127l-1.7801631.82138231-1.3406522.22913265-.0057704.43690549.0067321-.00194181c.0067321.01650532.0192346.03203974.0452014.04369055l1.7032246.78740078c.0692446.03398153.1827288.03495244.2529351.0029127l3.0736905-1.40974836c.0403927-.01844712.0548186-.04369055.05001-.06796308" fill="#E2F0FF"/><path d="M246.6233629 201.34255471c-.0702063.03203973-.0711681.08543929-.0019235.11942083l1.7032247.78642987c.0692446.03398154.1836905.03592334.2538968.00388361l3.0736905-1.41071927c.0702063-.03203973.0711681-.0854393.0019235-.11942083l-1.7032247-.78642987c-.0692445-.03398154-.1836905-.03592334-.2538968-.0038836l-3.0736905 1.41071926z" fill="#FFF"/><path d="M201.8717369 228.6743909l.0028852-.5903078-.8732512.1611696-1.56473546-.6980779c-.09617304-.0456324-.25389684-.0456324-.35006988 0l-2.41779035 1.1359542-1.84940766.3407863v.6029296l.00865558-.0019418c.0096173.0223307.02789018.0436905.06347421.0601959l2.36681863 1.0563403c.09713478.0456324.25389684.0456324.35103162 0l4.19506821-1.972871c.0548186-.0252434.075015-.0601958.0673211-.0941774" fill="#E2F0FF"/><path d="M194.89120882 228.9307088c-.09617305.0456324-.09617305.1194208 0 .1650532l2.36778036 1.0563404c.09617305.0456323.25389684.0456323.35006989 0l4.19314473-1.9738419c.0961731-.0456324.0961731-.1194209 0-.1650532l-2.36778034-1.0573113c-.09617304-.0446614-.25389684-.0446614-.35006988 0l-4.19314476 1.9748128z" fill="#FFF"/><path d="M207.2683912 226.1258727l.0019234-.5903079-.8722895.1611696-1.5647354-.6980779c-.0961731-.0456323-.2538969-.0456323-.3500699 0l-2.4177903 1.1359543-1.8494077.3407863v.6029296l.00865557-.0019419c.00961731.0223308.02789018.0436906.06347421.0601959l2.36681862 1.0563404c.0971348.0456323.2538969.0456323.3510316 0l4.1950682-1.972871c.0548187-.0252434.075015-.0601959.0673212-.0941774" fill="#E2F0FF"/><path d="M200.28786306 226.3820935c-.09617304.0456323-.09617304.1194208 0 .1650532l2.36778034 1.0563403c.0961731.0456324.2538969.0456324.3500699 0l4.1931448-1.9738418c.096173-.0456324.096173-.1194209 0-.1650532l-2.3677804-1.0573113c-.096173-.0446615-.2538968-.0446615-.3500699 0l-4.19314474 1.9748128z" fill="#FFF"/><path d="M212.6650454 223.5773545l.0019235-.5903079-.8722895.1611696-1.5647355-.6980779c-.096173-.0456323-.2538968-.0456323-.3500699 0l-2.4177903 1.1359543-1.8494077.3407862v.6029296l.0086556-.0019418c.0096173.0223307.0278902.0436906.0634742.0601959l2.3668187 1.0563403c.0971347.0456324.2538968.0456324.3510316 0l4.1950682-1.9728709c.0548186-.0252435.075015-.0601959.0673211-.0941774" fill="#E2F0FF"/><path d="M205.6845173 223.8335753c-.096173.0456323-.096173.1194208 0 .1650531l2.3677804 1.0563404c.096173.0456324.2538968.0456324.3500699 0l4.1931447-1.9738419c.0961731-.0456323.0961731-.1194208 0-.1650532l-2.3677804-1.0573112c-.096173-.0446615-.2538968-.0446615-.3500698 0l-4.1931448 1.9748128z" fill="#FFF"/><path d="M218.0616997 221.0287391l.0028852-.5903078-.8732513.1611696-1.5647354-.6980779c-.0961731-.0456324-.2538969-.0456324-.3500699 0l-2.4177904 1.1359542-1.8494076.3407863v.6029296l.0086556-.0019418c.0096173.0223307.0278901.0436905.0634742.0601959l2.3668186 1.0563403c.0971348.0456324.2538968.0456324.3510316 0l4.1950682-1.972871c.0548187-.0252434.075015-.0601958.0673212-.0941774" fill="#E2F0FF"/><path d="M211.0811715 221.2849599c-.096173.0456324-.096173.1194209 0 .1650532l2.3677804 1.0563404c.0961731.0456323.2538969.0456323.3500699 0l4.1931448-1.9738419c.096173-.0456324.096173-.1194208 0-.1650532l-2.3677804-1.0573113c-.0961731-.0446614-.2538968-.0446614-.3500699 0l-4.1931448 1.9748128z" fill="#FFF"/><path d="M223.4583539 218.4802209l.0019235-.5903079-.8722895.1611696-1.5647355-.6980779c-.096173-.0456323-.2538968-.0456323-.3500699 0l-2.4177903 1.1359543-1.8494077.3407863v.6029295l.0086556-.0019418c.0096173.0223308.0278902.0436906.0634742.0601959l2.3668186 1.0563404c.0971348.0456323.2538969.0456323.3510317 0l4.1950682-1.972871c.0548186-.0252434.075015-.0601959.0673211-.0941774" fill="#E2F0FF"/><path d="M216.4778258 218.7364417c-.0961731.0456323-.0961731.1194208 0 .1650532l2.3677804 1.0563403c.096173.0456324.2538968.0456324.3500698 0l4.1931448-1.9738418c.096173-.0456324.096173-.1194209 0-.1650532l-2.3677804-1.0573113c-.096173-.0446615-.2538968-.0446615-.3500699 0l-4.1931447 1.9748128z" fill="#FFF"/><path d="M228.8550082 215.9316056l.0019234-.5903079-.8722895.1611696-1.5647354-.6980779c-.0961731-.0456323-.2538969-.0456323-.3500699 0l-2.4177904 1.1359543-1.8494076.3407863v.6029295l.0086555-.0019418c.0096173.0223307.0278902.0436906.0634743.0601959l2.3668186 1.0563404c.0971348.0456323.2538968.0456323.3510316 0l4.1950682-1.972871c.0548187-.0252435.075015-.0601959.0673212-.0941774" fill="#E2F0FF"/><path d="M221.87448 216.1879234c-.096173.0456324-.096173.1194209 0 .1650532l2.3677804 1.0563404c.096173.0456324.2538968.0456324.3500699 0l4.1931447-1.9738419c.0961731-.0456323.0961731-.1194208 0-.1650532l-2.3677803-1.0573112c-.0961731-.0446615-.2538969-.0446615-.3500699 0l-4.1931448 1.9748127z" fill="#FFF"/><path d="M234.2516624 213.3830873l.0028852-.5903078-.8732513.1611696-1.5647354-.6980779c-.096173-.0456324-.2538968-.0456324-.3500699 0l-2.4177903 1.1359542-1.8494077.3407863v.6029296l.0086556-.0019418c.0096173.0223307.0278902.0436905.0634742.0601958l2.3668186 1.0563404c.0971348.0456324.2538969.0456324.3510316 0l4.1950683-1.972871c.0548186-.0252434.0750149-.0601958.0673211-.0941774" fill="#E2F0FF"/><path d="M227.2712304 213.6393081c-.096173.0456324-.096173.1194209 0 .1650532l2.3677804 1.0563404c.0961731.0456323.2538969.0456323.3500699 0l4.1931448-1.9738419c.096173-.0456324.096173-.1194208 0-.1650532l-2.3677804-1.0573113c-.0961731-.0446614-.2538968-.0446614-.3500699 0l-4.1931448 1.9748128z" fill="#FFF"/><path d="M239.6484128 210.8345691l.0028852-.5903079-.8732512.1611696-1.5647355-.69807786c-.096173-.04563235-.2538968-.04563235-.3500699 0l-2.4177903 1.13595426-1.8494077.3407863v.6029295l.0086556-.0019418c.0096173.0223308.0278902.0436906.0634742.0601959l2.3668186 1.0563404c.0971348.0456323.2538969.0456323.3510317 0l4.1950682-1.972871c.0548186-.0252434.075015-.0601959.0673211-.0941774" fill="#E2F0FF"/><path d="M232.6678847 211.0907899c-.0961731.0456323-.0961731.1194208 0 .1650532l2.3677804 1.0563403c.096173.0456324.2538968.0456324.3500698 0l4.1931448-1.9738419c.096173-.0456323.096173-.1194208 0-.1650531l-2.3677804-1.05731131c-.096173-.04466145-.2538968-.04466145-.3500698 0l-4.1931448 1.97481281z" fill="#FFF"/><path d="M245.0450671 208.28595376l.0019234-.59030785-.8722895.16116958-1.5647354-.69807788c-.0961731-.04563235-.2538969-.04563235-.3500699 0l-2.4177904 1.13595426-1.8494076.34078628v.60292957l.0086555-.0019418c.0096173.02233072.0278902.04369054.0634743.06019586l2.3668186 1.05634042c.0971348.0456323.2538968.0456323.3510316 0l4.1950682-1.97287103c.0548187-.02524343.075015-.06019587.0673212-.09417741" fill="#E2F0FF"/><path d="M238.0645389 208.54217456c-.096173.04563235-.096173.11942083 0 .16505318l2.3677804 1.05634037c.096173.04563235.2538968.04563235.3500699 0l4.1931447-1.97384189c.0961731-.04563235.0961731-.11942083 0-.16505318l-2.3677803-1.05731128c-.0961731-.04466144-.2538969-.04466144-.3500699 0l-4.1931448 1.9748128z" fill="#FFF"/><path d="M250.4417213 205.73743552l.0019235-.59030785-.8722896.16116958-1.5647354-.69807788c-.096173-.04563235-.2538968-.04563235-.3500699 0l-2.4177903 1.13595426-1.8494077.34078628v.60292957l.0086556-.0019418c.0096173.02233072.0278902.04369055.0634742.06019587l2.3668186 1.05634037c.0971348.04563235.2538969.04563235.3510316 0l4.1950683-1.97287099c.0548186-.02524343.0750149-.06019587.0673211-.09417741" fill="#E2F0FF"/><path d="M243.4611932 205.99365632c-.0961731.04563235-.0961731.11942083 0 .16505318l2.3677803 1.05634037c.0961731.04563235.2538969.04563235.3500699 0l4.1931448-1.97384189c.096173-.04563235.096173-.11942083 0-.16505318l-2.3677804-1.05731127c-.096173-.04466145-.2538968-.04466145-.3500699 0l-4.1931447 1.97481279z" fill="#FFF"/><path d="M255.8383755 203.1888202l.0028852-.59030786-.8732512.16116958-1.5647355-.69807787c-.096173-.04563235-.2538968-.04563235-.3500698 0l-2.4177904 1.13595426-1.8494076.34078627v.60292957l.0086555-.0019418c.0096173.02233073.0278902.04369055.0634742.06019587l2.3668187 1.05634037c.0971348.04563235.2538968.04563235.3510316 0l4.1950682-1.97287099c.0548186-.02524343.075015-.06019587.0673211-.0941774" fill="#E2F0FF"/><path d="M248.8578474 203.44513808c-.096173.04563235-.096173.11942083 0 .16505318l2.3677804 1.05634038c.096173.04563235.2538968.04563235.3500699 0l4.1931447-1.97384189c.0961731-.04563235.0961731-.11942084 0-.16505319l-2.3677803-1.05731127c-.0961731-.04466145-.2538969-.04466145-.3500699 0l-4.1931448 1.97481279z" fill="#FFF"/><path d="M205.9852504 230.5580361l.0019235-.5903078-.8722895.1611695-1.5647355-.6980778c-.096173-.0456324-.2538968-.0456324-.3500699 0l-2.41779031 1.1359542-1.84940766.3407863v.6029296l.00865558-.0019418c.0096173.0223307.02789018.0436905.06347421.0601958l2.36681868 1.0563404c.0971347.0456324.2538968.0456324.3510316 0l4.1950682-1.972871c.0548186-.0252434.075015-.0601959.0673211-.0941774" fill="#E2F0FF"/><path d="M199.0047223 230.8142569c-.09617305.0456324-.09617305.1194208 0 .1650532l2.3677804 1.0563404c.096173.0456323.2538968.0456323.3500698 0l4.1931448-1.9738419c.096173-.0456324.096173-.1194209 0-.1650532l-2.3677804-1.0563404c-.096173-.0456323-.2538968-.0456323-.3500698-.0009709l-4.1931448 1.9748128z" fill="#FFF"/><path d="M211.3819047 228.0095179l.0019234-.5903079-.8722895.1611696-1.5647354-.6980779c-.0961731-.0456323-.2538969-.0456323-.3500699 0l-2.4177904 1.1359543-1.8494076.3407863v.6029295l.0086555-.0019418c.0096174.0223308.0278902.0436906.0634743.0601959l2.3668186 1.0563404c.0971348.0456323.2538968.0456323.3510316 0l4.1950682-1.972871c.0548187-.0252435.075015-.0601959.0673212-.0941774" fill="#E2F0FF"/><path d="M204.4013765 228.2657387c-.096173.0456323-.096173.1194208 0 .1650532l2.3677804 1.0563403c.0961731.0456324.2538968.0456324.3500699 0l4.1931447-1.9738419c.0961731-.0456323.0961731-.1194208 0-.1650532l-2.3677803-1.0563403c-.0961731-.0456324-.2538969-.0456324-.3500699-.0009709l-4.1931448 1.9748128z" fill="#FFF"/><path d="M216.7785589 225.4609996l.0028852-.5903078-.8732513.1611696-1.5647354-.6980779c-.096173-.0456324-.2538968-.0456324-.3500699 0l-2.4177903 1.1359542-1.8494077.3407863v.6029296l.0086556-.0019418c.0096173.0223307.0278902.0436905.0634742.0601959l2.3668186 1.0563403c.0971348.0456324.2538969.0456324.3510317 0l4.1950682-1.972871c.0548186-.0252434.0750149-.0601958.0673211-.0941774" fill="#E2F0FF"/><path d="M209.7980308 225.7171233c-.0961731.0456324-.0961731.1194209 0 .1650532l2.3677803 1.0563404c.0961731.0456323.2538969.0456323.3500699 0l4.1931448-1.9738419c.096173-.0456323.096173-.1194208 0-.1650532l-2.3677804-1.0563403c-.096173-.0456324-.2538968-.0456324-.3500699-.000971l-4.1931447 1.9748128z" fill="#FFF"/><path d="M222.1752131 222.9123843l.0019235-.5903078-.8722895.1611695-1.5647355-.6980778c-.096173-.0456324-.2538968-.0456324-.3500698 0l-2.4177904 1.1359542-1.8494076.3407863v.6029296l.0086555-.0019418c.0096173.0223307.0278902.0436905.0634742.0601958l2.3668187 1.0563404c.0971348.0456324.2538968.0456324.3510316 0l4.1950682-1.972871c.0548186-.0252434.075015-.0601959.0673211-.0941774" fill="#E2F0FF"/><path d="M215.194685 223.1686051c-.096173.0456324-.096173.1194208 0 .1650532l2.3677804 1.0563404c.096173.0456323.2538968.0456323.3500699 0l4.1931447-1.9738419c.0961731-.0456324.0961731-.1194209 0-.1650532l-2.3677803-1.0563404c-.0961731-.0456323-.2538969-.0456323-.3500699-.0009709l-4.1931448 1.9748128z" fill="#FFF"/><path d="M227.5719636 220.3638661l.0019234-.5903079-.8722895.1611696-1.5647354-.6980779c-.0961731-.0456323-.2538969-.0456323-.3500699 0l-2.4177904 1.1359543-1.8494076.3407863v.6029295l.0086556-.0019418c.0096173.0223308.0278901.0436906.0634742.0601959l2.3668186 1.0563404c.0971348.0456323.2538968.0456323.3510316 0l4.1950682-1.972871c.0548187-.0252435.075015-.0601959.0673212-.0941774" fill="#E2F0FF"/><path d="M220.5913393 220.6200869c-.0961731.0456323-.0961731.1194208 0 .1650531l2.3677803 1.0563404c.0961731.0456324.2538969.0456324.3500699 0l4.1931448-1.9738419c.096173-.0456323.096173-.1194208 0-.1650532l-2.3677804-1.0563403c-.096173-.0456324-.2538968-.0456324-.3500699-.0009709l-4.1931447 1.9748128z" fill="#FFF"/><path d="M232.9685216 217.8152507l.0028852-.5903078-.8732512.1611696-1.5647355-.6980779c-.096173-.0456324-.2538968-.0456324-.3500699 0l-2.4177903 1.1359543-1.8494077.3407862v.6029296l.0086556-.0019418c.0096173.0223307.0278902.0436905.0634742.0601959l2.3668187 1.0563403c.0971347.0456324.2538968.0456324.3510316 0l4.1950682-1.972871c.0548186-.0252434.075015-.0601958.0673211-.0941774" fill="#E2F0FF"/><path d="M225.9880897 218.0714715c-.0961731.0456324-.0961731.1194209 0 .1650532l2.3677803 1.0563404c.0961731.0456323.2538969.0456323.3500699 0l4.1931448-1.9738419c.096173-.0456323.096173-.1194208 0-.1650532l-2.3677804-1.0563404c-.096173-.0456323-.2538968-.0456323-.3500699-.0009709l-4.1931447 1.9748128z" fill="#FFF"/><path d="M238.365272 215.2667325l.0019235-.5903078-.8722895.1611695-1.5647355-.6980778c-.096173-.0456324-.2538968-.0456324-.3500698 0l-2.4177904 1.1359542-1.8494076.3407863v.6029296l.0086555-.0019418c.0096173.0223307.0278902.0436905.0634742.0601958l2.3668187 1.0563404c.0971348.0456323.2538968.0456323.3510316 0l4.1950682-1.972871c.0548187-.0252434.075015-.0601959.0673211-.0941774" fill="#E2F0FF"/><path d="M231.3847439 215.5229533c-.096173.0456324-.096173.1194208 0 .1650532l2.3677804 1.0563404c.096173.0456323.2538968.0456323.3500699 0l4.1931447-1.9738419c.0961731-.0456324.0961731-.1194209 0-.1650532l-2.3677803-1.0563404c-.0961731-.0456323-.2538969-.0456323-.3500699-.0009709l-4.1931448 1.9748128z" fill="#FFF"/><path d="M243.7619263 212.7182143l.0019235-.5903079-.8722896.1611696-1.5647354-.6980779c-.0961731-.0456323-.2538968-.0456323-.3500699 0l-2.4177903 1.1359543-1.8494077.3407863v.6029295l.0086556-.0019418c.0096173.0223307.0278902.0436906.0634742.0601959l2.3668186 1.0563404c.0971348.0456323.2538969.0456323.3510316 0l4.1950683-1.972871c.0548186-.0252435.0750149-.0601959.0673211-.0941774" fill="#E2F0FF"/><path d="M236.7813982 212.974338c-.0961731.0456323-.0961731.1194208 0 .1650532l2.3677803 1.0563403c.0961731.0456324.2538969.0456324.3500699 0l4.1931448-1.9738419c.096173-.0456323.096173-.1194208 0-.1650531l-2.3677804-1.0563404c-.096173-.0456324-.2538968-.0456324-.3500699-.0009709l-4.1931447 1.9748128z" fill="#FFF"/><path d="M249.1585805 210.1695989l.0028852-.59030781-.8732512.16116958-1.5647355-.69807788c-.096173-.04563235-.2538968-.04563235-.3500698 0l-2.4177904 1.13595431-1.8494077.3407862v.6029296l.0086556-.0019418c.0096173.0223307.0278902.0436905.0634742.0601959l2.3668187 1.0563403c.0971347.0456324.2538968.0456324.3510316 0l4.1950682-1.972871c.0548186-.0252434.075015-.0601958.0673211-.0941774" fill="#E2F0FF"/><path d="M242.1780524 210.4258197c-.096173.0456324-.096173.1194209 0 .1650532l2.3677804 1.0563404c.096173.0456323.2538968.0456323.3500699 0l4.1931447-1.9738419c.0961731-.04563235.0961731-.11942083 0-.16505318l-2.3677803-1.05731128c-.0961731-.04466145-.2538969-.04466145-.3500699 0l-4.1931448 1.97481276z" fill="#FFF"/><path d="M254.5552348 207.6210807l.0019234-.59030785-.8722895.16116958-1.5647354-.69807788c-.0961731-.04563235-.2538969-.04563235-.3500699 0l-2.4177904 1.13595426-1.8494076.34078628v.60292957l.0086556-.0019418c.0096173.02233072.0278901.04369055.0634742.06019587l2.3668186 1.05634037c.0971348.04563235.2538968.04563235.3510316 0l4.1950682-1.97287099c.0548187-.02524343.075015-.06019587.0673212-.09417741" fill="#E2F0FF"/><path d="M247.5747067 207.8773015c-.0961731.04563235-.0961731.11942083 0 .16505318l2.3677803 1.05634037c.0961731.04563235.2538969.04563235.3500699 0l4.1931448-1.97384189c.096173-.04563235.096173-.11942083 0-.16505318l-2.3677804-1.05731127c-.096173-.04466145-.2538968-.04466145-.3500699 0l-4.1931447 1.97481279z" fill="#FFF"/><path d="M259.951889 205.07246538l.0019235-.59030786-.8722895.16116958-1.5647355-.69807787c-.096173-.04563236-.2538968-.04563236-.3500699 0l-2.4177903 1.13595426-1.8494077.34078627v.60292957l.0086556-.0019418c.0096173.02233073.0278902.04369055.0634742.06019587l2.3668187 1.05634037c.0971347.04563235.2538968.04563235.3510316 0l4.1950682-1.97287099c.0548186-.02524343.075015-.06019587.0673211-.0941774" fill="#E2F0FF"/><path d="M252.9713609 205.32878326c-.096173.04563235-.096173.11942083 0 .16505318l2.3677804 1.05634038c.096173.04563235.2538968.04563235.3500698 0l4.1931448-1.97384189c.0961731-.04563235.0961731-.11942084 0-.16505319l-2.3677804-1.05731127c-.096173-.04466145-.2538968-.04466145-.3500698 0l-4.1931448 1.97481279z" fill="#FFF"/><path d="M210.0987639 232.4416813l.0028852-.5903079-.8732513.1611696-1.5647354-.6980779c-.096173-.0456323-.2538968-.0456323-.3500699 0l-2.4177903 1.1359543-1.8494077.3407863v.6029295l.0086556-.0019418c.0096173.0223308.0278902.0436906.0634742.0601959l2.3668186 1.0563404c.0971348.0456323.2538969.0456323.3510316 0l4.1950683-1.972871c.0548186-.0252434.0750149-.0601959.0673211-.0941774" fill="#E2F0FF"/><path d="M203.1182358 232.6979021c-.0961731.0456323-.0961731.1194208 0 .1650532l2.3677803 1.0563403c.0961731.0456324.2538969.0456324.3500699 0l4.1931448-1.9738418c.096173-.0456324.096173-.1194209 0-.1650532l-2.3677804-1.0563404c-.096173-.0456324-.2538968-.0456324-.3500699-.0009709l-4.1931447 1.9748128z" fill="#FFF"/><path d="M215.4954181 229.8931631l.0019235-.5903079-.8722895.1611696-1.5647355-.6980779c-.096173-.0456323-.2538968-.0456323-.3500698 0l-2.4177904 1.1359543-1.8494076.3407862v.6029296l.0086555-.0019418c.0096173.0223307.0278902.0436906.0634742.0601959l2.3668187 1.0563403c.0971347.0456324.2538968.0456324.3510316 0l4.1950682-1.9728709c.0548186-.0252435.075015-.0601959.0673211-.0941774" fill="#E2F0FF"/><path d="M208.51489 230.1493838c-.096173.0456324-.096173.1194209 0 .1650532l2.3677804 1.0563404c.096173.0456324.2538968.0456324.3500699 0l4.1931447-1.9738419c.0961731-.0456323.0961731-.1194208 0-.1650532l-2.3677803-1.0563403c-.0961731-.0456324-.2538969-.0456324-.3500699-.0009709l-4.1931448 1.9748127z" fill="#FFF"/><path d="M220.8920724 227.3445477l.0019234-.5903078-.8722895.1611695-1.5647354-.6980778c-.0961731-.0456324-.2538969-.0456324-.3500699 0l-2.4177904 1.1359542-1.8494076.3407863v.6029296l.0086556-.0019418c.0096173.0223307.0278902.0436905.0634742.0601958l2.3668186 1.0563404c.0971348.0456324.2538969.0456324.3510316 0l4.1950682-1.972871c.0548187-.0252434.075015-.0601958.0673212-.0941774" fill="#E2F0FF"/><path d="M213.9115443 227.6007685c-.0961731.0456324-.0961731.1194209 0 .1650532l2.3677803 1.0563404c.0961731.0456323.2538969.0456323.3500699 0l4.1931448-1.9738419c.096173-.0456324.096173-.1194208 0-.1650532l-2.3677804-1.0563404c-.096173-.0456323-.2538968-.0456323-.3500699-.0009709l-4.1931447 1.9748128z" fill="#FFF"/><path d="M226.2887266 224.7960295l.0028852-.5903079-.8732512.1611696-1.5647355-.6980779c-.096173-.0456323-.2538968-.0456323-.3500699 0l-2.4177903 1.1359543-1.8494077.3407863v.6029295l.0086556-.0019418c.0096173.0223308.0278902.0436906.0634742.0601959l2.3668187 1.0563404c.0971347.0456323.2538968.0456323.3510316 0l4.1950682-1.972871c.0548186-.0252434.075015-.0601959.0673211-.0941774" fill="#E2F0FF"/><path d="M219.3082947 225.0522503c-.0961731.0456323-.0961731.1194208 0 .1650532l2.3677803 1.0563403c.0961731.0456324.2538969.0456324.3500699 0l4.1931448-1.9738419c.096173-.0456323.096173-.1194208 0-.1650531l-2.3677804-1.0563404c-.096173-.0456324-.2538968-.0456324-.3500699-.0009709l-4.1931447 1.9748128z" fill="#FFF"/><path d="M231.6853809 222.2475113l.0019234-.5903079-.8722895.1611696-1.5647354-.6980779c-.0961731-.0456324-.2538969-.0456324-.3500699 0l-2.4177904 1.1359543-1.8494076.3407862v.6029296l.0086556-.0019418c.0096173.0223307.0278901.0436906.0634742.0601959l2.3668186 1.0563403c.0971348.0456324.2538968.0456324.3510316 0l4.1950682-1.9728709c.0548187-.0252435.075015-.0601959.0673212-.0941774" fill="#E2F0FF"/><path d="M224.7048527 222.503732c-.096173.0456324-.096173.1194209 0 .1650532l2.3677804 1.0563404c.0961731.0456324.2538969.0456324.3500699 0l4.1931448-1.9738419c.096173-.0456323.096173-.1194208 0-.1650532l-2.3677804-1.0563403c-.0961731-.0456324-.2538969-.0456324-.3500699-.0009709l-4.1931448 1.9748127z" fill="#FFF"/><path d="M237.0821313 219.6988959l.0019234-.5903078-.8722895.1611695-1.5647354-.6980778c-.0961731-.0456324-.2538969-.0456324-.3500699 0l-2.4177903 1.1359542-1.8494077.3407863v.6029296l.0086556-.0019418c.0096173.0223307.0278902.0436905.0634742.0601958l2.3668186 1.0563404c.0971348.0456324.2538969.0456324.3510316 0l4.1950682-1.972871c.0548187-.0252434.075015-.0601958.0673212-.0941774" fill="#E2F0FF"/><path d="M230.1016032 219.9551167c-.0961731.0456324-.0961731.1194209 0 .1650532l2.3677803 1.0563404c.0961731.0456323.2538969.0456323.3500699 0l4.1931448-1.9738419c.096173-.0456324.096173-.1194208 0-.1650532l-2.3677804-1.0563404c-.096173-.0456323-.2538968-.0456323-.3500699-.0009709l-4.1931447 1.9748128z" fill="#FFF"/><path d="M242.4787855 217.1503777l.0028852-.5903079-.8732512.1611696-1.5647355-.6980779c-.096173-.0456323-.2538968-.0456323-.3500699 0l-2.4177903 1.1359543-1.8494077.3407863v.6029295l.0086556-.0019418c.0096173.0223308.0278902.0436906.0634742.0601959l2.3668187 1.0563404c.0971347.0456323.2538968.0456323.3510316 0l4.1950682-1.972871c.0548186-.0252434.075015-.0601959.0673211-.0941774" fill="#E2F0FF"/><path d="M235.4982574 217.4065985c-.096173.0456323-.096173.1194208 0 .1650532l2.3677804 1.0563403c.096173.0456324.2538968.0456324.3500699 0l4.1931447-1.9738419c.0961731-.0456323.0961731-.1194208 0-.1650531l-2.3677804-1.0563404c-.096173-.0456324-.2538968-.0456324-.3500698-.0009709l-4.1931448 1.9748128z" fill="#FFF"/><path d="M247.8754398 214.6018594l.0019234-.5903078-.8722895.1611696-1.5647354-.6980779c-.0961731-.0456324-.2538969-.0456324-.3500699 0l-2.4177904 1.1359543-1.8494076.3407862v.6029296l.0086556-.0019418c.0096173.0223307.0278901.0436906.0634742.0601959l2.3668186 1.0563403c.0971348.0456324.2538968.0456324.3510316 0l4.1950682-1.9728709c.0548187-.0252435.075015-.0601959.0673212-.0941775" fill="#E2F0FF"/><path d="M240.8949116 214.8579832c-.096173.0456323-.096173.1194208 0 .1650531l2.3677804 1.0563404c.0961731.0456324.2538969.0456324.3500699 0l4.1931448-1.9738419c.096173-.0456323.096173-.1194208 0-.1650532l-2.3677804-1.0563403c-.0961731-.0456324-.2538968-.0456324-.3500699-.0009709l-4.1931448 1.9748128z" fill="#FFF"/><path d="M253.272094 212.0532441l.0019235-.5903078-.8722895.1611695-1.5647355-.6980778c-.096173-.0456324-.2538968-.0456324-.3500699 0l-2.4177903 1.1359542-1.8494077.3407863v.6029296l.0086556-.0019418c.0096173.0223307.0278902.0436905.0634742.0601958l2.3668186 1.0563404c.0971348.0456324.2538969.0456324.3510317 0l4.1950682-1.972871c.0548186-.0252434.075015-.0601958.0673211-.0941774" fill="#E2F0FF"/><path d="M246.2915659 212.3094649c-.0961731.0456324-.0961731.1194208 0 .1650532l2.3677804 1.0563404c.096173.0456323.2538968.0456323.3500698 0l4.1931448-1.9738419c.096173-.0456324.096173-.1194209 0-.1650532l-2.3677804-1.0563404c-.096173-.0456323-.2538968-.0456323-.3500699-.0009709l-4.1931447 1.9748128z" fill="#FFF"/><path d="M258.6687483 209.50472588l.0028851-.59030785-.8732512.16116958-1.5647354-.69807788c-.0961731-.04563235-.2538969-.04563235-.3500699 0l-2.4177904 1.13595426-1.8494076.34078628v.60292953l.0086555-.0019418c.0096173.0223308.0278902.0436906.0634743.0601959l2.3668186 1.0563404c.0971348.0456323.2538968.0456323.3510316 0l4.1950682-1.97287101c.0548187-.02524343.075015-.06019587.0673212-.09417741" fill="#E2F0FF"/><path d="M251.6882201 209.76094668c-.096173.04563235-.096173.11942083 0 .16505322l2.3677804 1.0563403c.096173.0456324.2538968.0456324.3500699 0l4.1931447-1.97384186c.0961731-.04563235.0961731-.11942083 0-.16505318l-2.3677803-1.05634037c-.0961731-.04563235-.2538969-.04563235-.3500699-.0009709l-4.1931448 1.97481279z" fill="#FFF"/><path d="M264.0654025 206.95611056l.0019235-.59030786-.8722896.16116958-1.5647354-.69807787c-.096173-.04563236-.2538968-.04563236-.3500699 0l-2.4177903 1.13595426-1.8494077.34078627v.60292957l.0086556-.0019418c.0096173.02233073.0278902.04369055.0634742.06019587l2.3668186 1.05634037c.0971348.04563235.2538969.04563235.3510316 0l4.1950683-1.97287099c.0548186-.02524343.0750149-.06019587.0673211-.0941774" fill="#E2F0FF"/><path d="M257.0848744 207.21233135c-.0961731.04563235-.0961731.11942083 0 .16505318l2.3677803 1.05634038c.0961731.04563235.2538969.04563235.3500699 0l4.1931448-1.97384189c.096173-.04563236.096173-.11942084 0-.16505319l-2.3677804-1.05634037c-.096173-.04563235-.2538968-.04563235-.3500699-.0009709l-4.1931447 1.97481279z" fill="#FFF"/><path d="M214.2122774 234.3253265l.0019234-.5903079-.8722895.1611696-1.5647354-.6980779c-.0961731-.0456323-.2538969-.0456323-.3500699 0l-2.4177904 1.1359543-1.8494076.3407863v.6029295l.0086556-.0019418c.0096173.0223307.0278901.0436906.0634742.0601959l2.3668186 1.0563404c.0971348.0456323.2538968.0456323.3510316 0l4.1950682-1.972871c.0548187-.0252435.075015-.0601959.0673212-.0941774" fill="#E2F0FF"/><path d="M207.2317493 234.5815473c-.0961731.0456323-.0961731.1194208 0 .1650531l2.3677803 1.0563404c.0961731.0456324.2538969.0456324.3500699 0l4.1931448-1.9738419c.096173-.0456323.096173-.1194208 0-.1650532l-2.3677804-1.0563403c-.0961731-.0456324-.2538968-.0456324-.3500699-.0009709l-4.1931447 1.9748128z" fill="#FFF"/><path d="M219.6089316 231.7768082l.0028852-.5903078-.8732512.1611696-1.5647355-.6980779c-.096173-.0456324-.2538968-.0456324-.3500699 0l-2.4177903 1.1359542-1.8494077.3407863v.6029296l.0086556-.0019418c.0096173.0223307.0278902.0436905.0634742.0601959l2.3668186 1.0563403c.0971348.0456324.2538969.0456324.3510317 0l4.1950682-1.972871c.0548186-.0252434.075015-.0601958.0673211-.0941774" fill="#E2F0FF"/><path d="M212.6284035 232.033029c-.0961731.0456324-.0961731.1194209 0 .1650532l2.3677804 1.0563404c.096173.0456323.2538968.0456323.3500698 0l4.1931448-1.9738419c.096173-.0456324.096173-.1194208 0-.1650532l-2.3677804-1.0563404c-.096173-.0456323-.2538968-.0456323-.3500698-.0009709l-4.1931448 1.9748128z" fill="#FFF"/><path d="M225.0055859 229.2281929l.0019234-.5903078-.8722895.1611695-1.5647354-.6980778c-.0961731-.0456324-.2538969-.0456324-.3500699 0l-2.4177904 1.1359542-1.8494076.3407863v.6029296l.0086555-.0019418c.0096174.0223307.0278902.0436905.0634743.0601958l2.3668186 1.0563404c.0971348.0456323.2538968.0456323.3510316 0l4.1950682-1.972871c.0548187-.0252434.075015-.0601959.0673212-.0941774" fill="#E2F0FF"/><path d="M218.0250577 229.4844137c-.096173.0456324-.096173.1194208 0 .1650532l2.3677804 1.0563404c.096173.0456323.2538968.0456323.3500699 0l4.1931447-1.9738419c.0961731-.0456324.0961731-.1194209 0-.1650532l-2.3677803-1.0563404c-.0961731-.0456323-.2538969-.0456323-.3500699-.0009709l-4.1931448 1.9748128z" fill="#FFF"/><path d="M230.4022401 226.6796747l.0019235-.5903079-.8722896.1611696-1.5647354-.6980779c-.096173-.0456323-.2538968-.0456323-.3500699 0l-2.4177903 1.1359543-1.8494077.3407863v.6029295l.0086556-.0019418c.0096173.0223307.0278902.0436906.0634742.0601959l2.3668186 1.0563404c.0971348.0456323.2538969.0456323.3510316 0l4.1950683-1.972871c.0548186-.0252435.0750149-.0601959.0673211-.0941774" fill="#E2F0FF"/><path d="M223.421712 226.9358955c-.0961731.0456323-.0961731.1194208 0 .1650531l2.3677803 1.0563404c.0961731.0456324.2538969.0456324.3500699 0l4.1931448-1.9738419c.096173-.0456323.096173-.1194208 0-.1650532l-2.3677804-1.0563403c-.096173-.0456324-.2538968-.0456324-.3500699-.0009709l-4.1931447 1.9748128z" fill="#FFF"/><path d="M235.7988943 224.1310593l.0028852-.5903078-.8732512.1611696-1.5647355-.6980779c-.096173-.0456324-.2538968-.0456324-.3500698 0l-2.4177904 1.1359543-1.8494076.3407862v.6029296l.0086555-.0019418c.0096173.0223307.0278902.0436905.0634742.0601959l2.3668187 1.0563403c.0971348.0456324.2538968.0456324.3510316 0l4.1950682-1.972871c.0548186-.0252434.075015-.0601958.0673211-.0941774" fill="#E2F0FF"/><path d="M228.8184624 224.3872801c-.096173.0456324-.096173.1194209 0 .1650532l2.3677804 1.0563404c.096173.0456323.2538968.0456323.3500698 0l4.1931448-1.9738419c.096173-.0456324.096173-.1194208 0-.1650532l-2.3677804-1.0563404c-.096173-.0456323-.2538968-.0456323-.3500698-.0009709l-4.1931448 1.9748128z" fill="#FFF"/><path d="M241.1956448 221.5825411l.0019234-.5903079-.8722895.1611696-1.5647354-.6980778c-.0961731-.0456324-.2538969-.0456324-.3500699 0l-2.4177904 1.1359542-1.8494076.3407863v.6029296l.0086555-.0019418c.0096174.0223307.0278902.0436905.0634743.0601958l2.3668186 1.0563404c.0971348.0456323.2538968.0456323.3510316 0l4.1950682-1.972871c.0548187-.0252434.075015-.0601959.0673212-.0941774" fill="#E2F0FF"/><path d="M234.2151166 221.8387619c-.096173.0456323-.096173.1194208 0 .1650532l2.3677804 1.0563404c.096173.0456323.2538968.0456323.3500699 0l4.1931447-1.9738419c.0961731-.0456324.0961731-.1194209 0-.1650532l-2.3677803-1.0563404c-.0961731-.0456323-.2538969-.0456323-.3500699-.0009709l-4.1931448 1.9748128z" fill="#FFF"/><path d="M246.592299 219.0340229l.0019235-.5903079-.8722896.1611696-1.5647354-.6980779c-.096173-.0456323-.2538968-.0456323-.3500699 0l-2.4177903 1.1359543-1.8494077.3407863v.6029295l.0086556-.0019418c.0096173.0223307.0278902.0436906.0634742.0601959l2.3668186 1.0563404c.0971348.0456323.2538969.0456323.3510317 0l4.1950682-1.972871c.0548186-.0252435.0750149-.0601959.0673211-.0941774" fill="#E2F0FF"/><path d="M239.6117709 219.2902437c-.0961731.0456323-.0961731.1194208 0 .1650531l2.3677803 1.0563404c.0961731.0456324.2538969.0456324.3500699 0l4.1931448-1.9738419c.096173-.0456323.096173-.1194208 0-.1650532l-2.3677804-1.0563403c-.096173-.0456324-.2538968-.0456324-.3500699-.0009709l-4.1931447 1.9748128z" fill="#FFF"/><path d="M251.9889532 216.4854075l.0028852-.5903078-.8732512.1611696-1.5647355-.6980779c-.096173-.0456324-.2538968-.0456324-.3500698 0l-2.4177904 1.1359542-1.8494076.3407863v.6029296l.0086555-.0019418c.0096173.0223307.0278902.0436905.0634742.0601959l2.3668187 1.0563403c.0971348.0456324.2538968.0456324.3510316 0l4.1950682-1.972871c.0548186-.0252434.075015-.0601958.0673211-.0941774" fill="#E2F0FF"/><path d="M245.0084251 216.7416283c-.096173.0456324-.096173.1194209 0 .1650532l2.3677804 1.0563404c.096173.0456323.2538968.0456323.3500699 0l4.1931447-1.9738419c.0961731-.0456324.0961731-.1194208 0-.1650532l-2.3677803-1.0563404c-.0961731-.0456323-.2538969-.0456323-.3500699-.0009709l-4.1931448 1.9748128z" fill="#FFF"/><path d="M257.3856075 213.9368893l.0019234-.5903079-.8722895.1611696-1.5647354-.6980778c-.0961731-.0456324-.2538968-.0456324-.3500699 0l-2.4177903 1.1359542-1.8494077.3407863v.6029296l.0086556-.0019418c.0096173.0223307.0278902.0436905.0634742.0601958l2.3668186 1.0563404c.0971348.0456323.2538969.0456323.3510316 0l4.1950683-1.972871c.0548186-.0252434.0750149-.0601959.0673211-.0941774" fill="#E2F0FF"/><path d="M250.4050794 214.1931101c-.0961731.0456323-.0961731.1194208 0 .1650532l2.3677803 1.0563404c.0961731.0456323.2538969.0456323.3500699 0l4.1931448-1.9738419c.096173-.0456324.096173-.1194209 0-.1650532l-2.3677804-1.0563404c-.096173-.0456323-.2538968-.0456323-.3500699-.0009709l-4.1931447 1.9748128z" fill="#FFF"/><path d="M262.7822617 211.3883711l.0019235-.5903079-.8722895.1611696-1.5647355-.6980779c-.096173-.0456323-.2538968-.0456323-.3500699 0l-2.4177903 1.1359543-1.8494077.3407863v.6029295l.0086556-.0019418c.0096173.0223307.0278902.0436906.0634742.0601959l2.3668187 1.0563404c.0971347.0456323.2538968.0456323.3510316 0l4.1950682-1.972871c.0548186-.0252435.075015-.0601959.0673211-.0941774" fill="#E2F0FF"/><path d="M255.8017336 211.6445919c-.096173.0456323-.096173.1194208 0 .1650531l2.3677804 1.0563404c.096173.0456324.2538968.0456324.3500699 0l4.1931447-1.9738419c.0961731-.0456323.0961731-.1194208 0-.1650532l-2.3677803-1.05634033c-.0961731-.04563235-.2538969-.04563235-.3500699-.0009709l-4.1931448 1.97481283z" fill="#FFF"/><path d="M268.178916 208.83975574l.0028852-.59030786-.8732513.16116958-1.5647354-.69807787c-.0961731-.04563236-.2538969-.04563236-.3500699 0l-2.4177904 1.13595426-1.8494076.34078627v.60292957l.0086556-.0019418c.0096173.02233073.0278901.04369055.0634742.06019587l2.3668186 1.05634034c.0971348.0456324.2538968.0456324.3510316 0l4.1950682-1.97287096c.0548187-.02524343.075015-.06019587.0673212-.0941774" fill="#E2F0FF"/><path d="M261.1983879 209.09597653c-.0961731.04563235-.0961731.11942083 0 .16505318l2.3677803 1.05634039c.0961731.0456323.2538969.0456323.3500699 0l4.1931448-1.9738419c.096173-.04563236.096173-.11942084 0-.16505319l-2.3677804-1.05634037c-.096173-.04563235-.2538968-.04563235-.3500699-.0009709l-4.1931447 1.97481279z" fill="#FFF"/><path d="M218.3257908 236.2089717l.0019235-.5903079-.8722895.1611696-1.5647354-.6980779c-.0961731-.0456324-.2538969-.0456324-.3500699 0l-2.4177904 1.1359543-1.8494076.3407862v.6029296l.0086555-.0019418c.0096173.0223307.0278902.0436906.0634742.0601959l2.3668187 1.0563403c.0971348.0456324.2538968.0456324.3510316 0l4.1950682-1.9728709c.0548187-.0252435.075015-.0601959.0673211-.0941774" fill="#E2F0FF"/><path d="M211.3452627 236.4651924c-.096173.0456324-.096173.1194209 0 .1650532l2.3677804 1.0563404c.096173.0456324.2538968.0456324.3500699 0l4.1931447-1.9738419c.0961731-.0456323.0961731-.1194208 0-.1650532l-2.3677803-1.0573112c-.0961731-.0446615-.2538969-.0446615-.3500699 0l-4.1931448 1.9748127z" fill="#FFF"/><path d="M223.7224451 233.6603563l.0019235-.5903078-.8722896.1611695-1.5647354-.6980778c-.0961731-.0456324-.2538968-.0456324-.3500699 0l-2.4177903 1.1359542-1.8494077.3407863v.6029296l.0086556-.0019418c.0096173.0223307.0278902.0436905.0634742.0601958l2.3668186 1.0563404c.0971348.0456324.2538969.0456324.3510316 0l4.1950683-1.972871c.0548186-.0252434.0750149-.0601958.0673211-.0941774" fill="#E2F0FF"/><path d="M216.741917 233.9166742c-.0961731.0456324-.0961731.1194208 0 .1650532l2.3677803 1.0563404c.0961731.0456323.2538969.0456323.3500699 0l4.1931448-1.9738419c.096173-.0456324.096173-.1194209 0-.1650532l-2.3677804-1.0573113c-.096173-.0446614-.2538968-.0446614-.3500699 0l-4.1931447 1.9748128z" fill="#FFF"/><path d="M229.1190993 231.1118381l.0028852-.5903079-.8732512.1611696-1.5647355-.6980779c-.096173-.0456323-.2538968-.0456323-.3500698 0l-2.4177904 1.1359543-1.8494076.3407863v.6029295l.0086555-.0019418c.0096173.0223308.0278902.0436906.0634742.0601959l2.3668187 1.0563404c.0971347.0456323.2538968.0456323.3510316 0l4.1950682-1.972871c.0548186-.0252434.075015-.0601959.0673211-.0941774" fill="#E2F0FF"/><path d="M222.1385712 231.3680589c-.096173.0456323-.096173.1194208 0 .1650532l2.3677804 1.0563403c.096173.0456324.2538968.0456324.3500699 0l4.1931447-1.9738419c.0961731-.0456323.0961731-.1194208 0-.1650531l-2.3677803-1.0573113c-.0961731-.0446615-.2538969-.0446615-.3500699 0l-4.1931448 1.9748128z" fill="#FFF"/><path d="M234.5157536 228.5633198l.0019234-.5903078-.8722895.1611696-1.5647354-.6980779c-.0961731-.0456324-.2538969-.0456324-.3500699 0l-2.4177904 1.1359543-1.8494076.3407862v.6029296l.0086556-.0019418c.0096173.0223307.0278902.0436906.0634742.0601959l2.3668186 1.0563403c.0971348.0456324.2538969.0456324.3510316 0l4.1950682-1.9728709c.0548187-.0252435.075015-.0601959.0673212-.0941775" fill="#E2F0FF"/><path d="M227.5352255 228.8195406c-.0961731.0456324-.0961731.1194209 0 .1650532l2.3677803 1.0563404c.0961731.0456323.2538969.0456323.3500699 0l4.1931448-1.9738419c.096173-.0456323.096173-.1194208 0-.1650532l-2.3677804-1.0573112c-.096173-.0446615-.2538968-.0446615-.3500699 0l-4.1931447 1.9748127z" fill="#FFF"/><path d="M250.7058125 220.917571l.0028852-.5903079-.8732513.1611696-1.5647354-.6980779c-.0961731-.0456323-.2538969-.0456323-.3500699 0l-2.4177904 1.1359543-1.8494076.3407862v.6029296l.0086556-.0019418c.0096173.0223307.0278902.0436906.0634742.0601959l2.3668186 1.0563403c.0971348.0456324.2538969.0456324.3510316 0l4.1950682-1.9728709c.0548187-.0252435.075015-.0601959.0673212-.0941774" fill="#E2F0FF"/><path d="M243.7252844 221.1738888c-.0961731.0456324-.0961731.1194209 0 .1650532l2.3677803 1.0563404c.0961731.0456323.2538969.0456323.3500699 0l4.1931448-1.9738419c.096173-.0456323.096173-.1194208 0-.1650532l-2.3677804-1.0573113c-.096173-.0446614-.2538968-.0446614-.3500699 0l-4.1931447 1.9748128z" fill="#FFF"/><path d="M256.1024667 218.3690527l.0019235-.5903078-.8722895.1611695-1.5647355-.6980778c-.096173-.0456324-.2538968-.0456324-.3500699 0l-2.4177903 1.1359542-1.8494077.3407863v.6029296l.0086556-.0019418c.0096173.0223307.0278902.0436905.0634742.0601958l2.3668187 1.0563404c.0971347.0456324.2538968.0456324.3510316 0l4.1950682-1.972871c.0548186-.0252434.075015-.0601958.0673211-.0941774" fill="#E2F0FF"/><path d="M249.1219386 218.6252735c-.096173.0456324-.096173.1194208 0 .1650532l2.3677804 1.0563404c.096173.0456323.2538968.0456323.3500699 0l4.1931447-1.9738419c.0961731-.0456324.0961731-.1194209 0-.1650532l-2.3677804-1.0563404c-.096173-.0456323-.2538968-.0456323-.3500698-.0009709l-4.1931448 1.9748128z" fill="#FFF"/><path d="M261.499121 215.8205345l.0019234-.5903079-.8722895.1611696-1.5647354-.6980779c-.0961731-.0456323-.2538969-.0456323-.3500699 0l-2.4177904 1.1359543-1.8494076.3407863v.6029295l.0086556-.0019418c.0096173.0223308.0278901.0436906.0634742.0601959l2.3668186 1.0563404c.0971348.0456323.2538968.0456323.3510316 0l4.1950682-1.972871c.0548187-.0252434.075015-.0601959.0673212-.0941774" fill="#E2F0FF"/><path d="M254.5185928 216.0767553c-.096173.0456323-.096173.1194208 0 .1650532l2.3677804 1.0563403c.0961731.0456324.2538968.0456324.3500699 0l4.1931448-1.9738419c.096173-.0456323.096173-.1194208 0-.1650531l-2.3677804-1.0563404c-.0961731-.0456324-.2538969-.0456324-.3500699-.0009709l-4.1931448 1.9748128z" fill="#FFF"/><path d="M266.8957752 213.2719192l.0028852-.5903079-.8732512.1611696-1.5647355-.6980779c-.096173-.0456323-.2538968-.0456323-.3500699 0l-2.4177903 1.1359543-1.8494077.3407862v.6029296l.0086556-.0019418c.0096173.0223307.0278902.0436906.0634742.0601959l2.3668186 1.0563403c.0971348.0456324.2538969.0456324.3510317 0l4.1950682-1.9728709c.0548186-.0252435.075015-.0601959.0673211-.0941774" fill="#E2F0FF"/><path d="M259.9152471 213.5281399c-.0961731.0456324-.0961731.1194209 0 .1650532l2.3677804 1.0563404c.096173.0456324.2538968.0456324.3500698 0l4.1931448-1.9738419c.096173-.0456323.096173-.1194208 0-.1650532l-2.3677804-1.0563403c-.096173-.0456324-.2538968-.0456324-.3500699-.0009709l-4.1931447 1.9748127z" fill="#FFF"/><path d="M272.2924295 210.7234009l.0019234-.5903078-.8722895.1611695-1.5647354-.69807784c-.0961731-.04563235-.2538969-.04563235-.3500699 0l-2.4177904 1.13595424-1.8494076.3407863v.6029296l.0086555-.0019418c.0096173.0223307.0278902.0436905.0634743.0601958l2.3668186 1.0563404c.0971348.0456324.2538968.0456324.3510316 0l4.1950682-1.972871c.0548187-.0252434.075015-.0601958.0673212-.0941774" fill="#E2F0FF"/><path d="M265.3119013 210.9796217c-.096173.0456324-.096173.1194208 0 .1650532l2.3677804 1.0563404c.096173.0456323.2538968.0456323.3500699 0l4.1931447-1.9738419c.0961731-.0456324.0961731-.1194209 0-.1650532l-2.3677803-1.05634038c-.0961731-.04563235-.2538969-.04563235-.3500699-.0009709l-4.1931448 1.97481278z" fill="#FFF"/><path d="M246.5609466 222.8671403l.0019234-.5903078-2.1552379.7825462-1.5647354-.6980778c-.0961731-.0456324-.2538969-.0456324-.3500699 0l-2.4177904 1.1369251-1.8503693.3407863v.6029296l.0096173-.0019418c.0096173.0213598.0269284.0427196.0634742.0592249l2.3668186 1.0573113c.096173.0446615.2538968.0446615.3500699 0l5.4789784-2.5952186c.0548186-.0252434.0750149-.0601958.0673211-.0941774" fill="#E2F0FF"/><path d="M238.2972777 223.7450291c-.096173.0454269-.096173.1188832 0 .1643102l2.3677804 1.0515852c.096173.0454269.2538968.0454269.3500699 0" fill="#FFF"/><path d="M241.0149356 224.966811l5.8184692-2.7554173c.0961731-.0446614.0961731-.1194208 0-.1640823l-2.3677803-1.0573112c-.0961731-.0456324-.2538969-.0456324-.3500699 0l-5.8184692 2.7554172" fill="#FFF"/><path d="M241.1956448 225.3930366l.0019234-.5903079-2.1552379.7825463-1.5647355-.6980779c-.096173-.0456324-.2538968-.0456324-.3500698 0l-2.4177904 1.1369252-1.8503694.3407862v.6029296l.0096173-.0019418c.0096173.0213598.0269285.0427197.0634742.059225l2.3668187 1.0573112c.096173.0446615.2538968.0446615.3500699 0l5.4789783-2.5952185c.0548187-.0252435.075015-.0601959.0673212-.0941774" fill="#E2F0FF"/><path d="M232.9319759 226.2709253c-.0961731.0454269-.0961731.1188833 0 .1643102l2.3677803 1.0515852c.0961731.045427.2538969.045427.3500699 0" fill="#FFF"/><path d="M235.6496338 227.4927072l5.8184692-2.7554172c.096173-.0446615.096173-.1194209 0-.1640823l-2.3677804-1.0573113c-.096173-.0456323-.2538968-.0456323-.3500699 0l-5.8184692 2.7554173" fill="#FFF"/><path d="M214.336148 257.142473v-1.06702l-1.894609-.276707-26.264859-11.724601c-1.11176-.523316-2.931354-.523316-4.043115 0l-11.850442 5.561321-1.269484-.185442v1.251491l.008655.000971c-.050972.373797.22216.756332.825165 1.040806l27.334303 12.202285c1.11176.523316 2.931354.523316 4.043115 0l12.286106-5.765211c.602043-.283503.875175-.665067.825165-1.037893" fill="#C0D6F4"/><path d="M169.847844 248.601748c-1.111761.523315-1.111761 1.380621 0 1.903937l27.334302 12.201313c1.111761.524287 2.931355.524287 4.043115.000971l12.285145-5.766181c1.112722-.523316 1.112722-1.379651.000962-1.902966l-27.334303-12.202285c-1.111761-.523316-2.931355-.524287-4.044077 0l-12.285144 5.765211z" fill="#273C5B"/><path d="M171.04943 250.630251l24.752056 11.039145 15.25016-7.32739-24.572213-10.95856c-.031737-.015535-.069245-.025244-.102905-.039807l-15.581957 7.145832c.0779.048545.160609.096119.254859.14078" fill="#5B97D8"/><path d="M207.343887 258.581446c0 .446614-.787658.80876-1.759967.80876-.97231 0-1.759967-.362146-1.759967-.80876 0-.446615.787657-.808761 1.759967-.808761.972309 0 1.759967.362146 1.759967.808761m-28.585707-12.889848c.082709.038204.092326.089144.020196.115363l-1.197354.426992c-.071168.02547-.197155.015731-.279864-.022473-.08367-.037456-.092326-.089144-.021158-.114614l1.197355-.427741c.07213-.02547.198116-.015732.280825.022473m-2.369727 1.104591c.098691.020226.227804-.009738.287167-.06742.060105-.057681.028197-.120606-.070493-.140832l-.020035-.003746c-.09869-.020226-.227062.009739-.287167.06742-.059363.057682-.028197.120607.070493.140833l.020035.003745z" fill="#142433"/><path d="M309.478506 196.769417c-4.425883-1.959279-8.873887-1.287415-11.136838 2.250549-.025005.035923.022119-.035924 0 0-.004809.008738-.011541.016505-.017312.025243l.003847.000971c-.537607.909734.340453 2.152488 1.629172 2.577742l10.555953 4.38556c2.420676 1.005854 6.343574.917502 8.717125-.196122l.178882-.084468c1.050209-.492247 1.627248-1.10974 1.737847-1.732088.00577-.015534.018273-.027185.021158-.04369.949228-5.09626-7.207208-5.199175-11.689834-7.183697" fill="#273C5B" opacity=".34210824"/><path d="M309.478506 194.937812c-2.938086-1.301007-6.887913-1.743738-9.576912.38836-.78958.625261-1.71188 1.588395-1.743617 2.669007-.031737 1.108769.953075 1.445672 1.799398 1.797138l10.555953 4.385561c2.420676 1.005853 6.343574.917501 8.717125-.196123l.178882-.084468c1.050209-.492247 1.627248-1.10974 1.737847-1.732087.00577-.015535.018273-.027186.021158-.043691.949228-5.09626-7.207208-5.199175-11.689834-7.183697" fill="#F2F2F2"/><path d="M167.703762 264.076454c.073091 3.004939-4.572067 5.558409-10.375148 5.702102-5.804044.144665-10.568456-2.173847-10.641548-5.178786-.074053-3.004939 4.572067-5.558409 10.375148-5.703073 5.804044-.143693 10.568456 2.174819 10.641548 5.179757" fill="#4646AA"/><path d="M147.240446 242.467983l2.121577 21.093797c.054819 2.238898 3.605528 3.967102 7.931391 3.859332 4.324902-.1068 7.787132-2.009766 7.732313-4.249635l2.121577-21.198654-19.906858.49516z" fill="#D6D6E8"/><path d="M165.778089 255.655926l1.369504-13.683879-19.906859.49613.273132 2.721436c4.04023 9.174044 12.39382 10.678941 18.264223 10.466313" fill="#BFBFDD"/><path d="M168.226078 241.997387c.076938 3.154458-4.799035 5.834145-10.891598 5.985605-6.0916.152432-11.092599-2.281617-11.169537-5.436075-.0779-3.154457 4.799035-5.835115 10.890635-5.986576 6.092563-.15146 11.093561 2.282589 11.1705 5.437046" fill="#BFBFDD"/><path d="M157.334865 251.86281c-4.195068.104857-7.872726-1.017504-9.781761-2.756388l.959807 9.540074c.060589 2.482594 3.996952 4.398182 8.791179 4.278761 4.794226-.119421 8.63153-2.228218 8.570941-4.710812l.945381-9.448809c-1.863833 1.75636-5.400116 2.995229-9.485547 3.097174" fill="#FC174D"/><path d="M156.120007 251.855334c-3.681504-.117479-6.844636-1.180616-8.566133-2.748621l.958845 9.540074c.055781 2.273851 3.365095 4.071959 7.607288 4.265169v-11.056622z" fill="#FC174D"/><path d="M166.595175 241.119984c.013464.535937-.814586.990319-1.848446 1.016533-1.034822.025244-1.88403-.387389-1.896532-.923327-.013465-.535937.814585-.990319 1.848446-1.016533 1.034822-.025243 1.883068.387389 1.896532.923327" fill="#7C7C96"/><path d="M178.339443 216.228313c-.452014-.24855-1.017511-.079614-1.262752.375739l-13.367092 24.791959c-.265438.493218 1.82825.541763 2.119654 0l12.882379-23.892905c.246203-.455352.079824-1.026242-.372189-1.274793" fill="#9DC5EA"/><path fill="#4646AA" opacity=".10665761" d="M254.446366 242.443613l59.575355 29.568793v6.245806l9.176832-4.220507.181767-9.699302-54.612825-24.142426z"/><path d="M348.684009 272.78579c-24.362556-.703903-15.32715-2.951186-42.737377 9.751731-27.410228 12.702916-30.583544 10.327827-32.133853 29.861386-1.551272 19.53453-7.062434 88.600196-7.062434 88.600196s10.306866 7.927407 25.506054.772837l12.072602-71.245692 88.186835-30.900869-43.831827-26.839589z" fill="#444863"/><path d="M316.370651 317.220084c5.049085-2.368999 36.692902 8.975981 51.081351 4.668092 25.803228-7.725459 37.243012-7.256514 27.813245-35.631098-9.428805-28.374584-77.735711 15.889767-77.735711 15.889767l-1.158885 15.073239z" fill="#444863"/><path d="M359.2897 167.71394s-6.164692 2.548615-3.501661 2.288414c2.663032-.260202 8.891198-.433993 8.891198-.433993l-5.389537-1.854421z" fill="#46C1AA"/><path d="M335.982355 181.616952c4.274892-5.811814.703025-11.089632-2.861148-10.952735-3.564173.136897 15.952223-6.557466 15.952223-6.557466s5.034659 8.919668 12.279374 3.788456c4.050809-2.867071 12.08799 15.631508 12.08799 15.631508s-38.882762.027185-37.458439-1.909763" fill="#FFF"/><path d="M312.444675 151.619216l2.570706-10.239123c.316409-12.0508242 5.409733-20.7442725 16.283058-24.7667156 25.990765-9.6138625 36.307248 21.8316816 36.307248 21.8316816-14.681777 39.257414-46.821847 32.046532-46.821847 32.046532-2.254296-6.269108-3.87385-12.156653-4.81827-17.596611l-3.520895-1.275764zm51.393529 59.408272l-39.417484-11.858586c-7.81983-2.406864-9.608649-7.638079-16.636014-5.412774-7.027364 2.224335 6.255095 8.030323 3.157362 8.885687-3.096772.855364-3.1564 2.298123-.119255 2.418514 3.038106.120392 5.973308.572832 8.894083 2.098118h.000962c5.556878 3.206886 33.421095 15.395578 47.767228 21.616141 7.237983 3.136011 3.342013.119421 4.566296-1.381592l-7.287032-3.694279 5.94638-8.692477-6.872526-3.978752z" fill="#FFF"/><path d="M339.091341 180.777802c4.918289-4.991402-.626087-11.000309-6.40224-10.207083.009617.069905.145221.103887.431817.093207 3.452612-.133014 6.910995 4.813727 3.241993 10.405147l2.72843-.291271z" fill="#E8E8E8"/><path d="M382.830072 173.807121c-2.149467-9.887657-11.408046-10.482819-23.540276-6.093375 10.906985 9.497354-1.332958 16.678138-13.375747 14.555749h.000962c-5.230852-.752449-9.924097-2.791341-10.557877-1.653445-.6559 1.176732-5.233737 3.345725-15.32229 9.216764l.399118-.177675-17.994938 32.91743c2.76786-1.175761 6.300296-3.768067 10.005844-3.909818 6.294525-.241755 12.382279 15.07421 10.539604 62.560011-.812663 20.928743 80.92 24.395831 75.347733 3.783601-14.097045-52.150009-13.352665-101.311586-15.502133-111.199242" fill="#46C1AA"/><path d="M302.994231 226.02587l-43.351924 3.807874c-3.059264-.218452-5.717487-.816528-6.542652-2.154429-2.093687-3.39427-4.058502-3.808845-3.696892-1.827236.331797 1.812672-.756881 2.223363-3.304505.735943-3.839228-2.938918-5.859824-6.110851-9.148942-1.852479-5.312599 6.876892 4.723058 14.237293 16.235933 15.552864 9.398992 1.45441 40.34844 4.076814 55.881348 5.300149 8.313198.652446 10.736759-3.563207 11.41574-5.563263l.252936-1.01265 2.792865-11.165362-20.533907-1.821411z" fill="#FFF"/><path d="M341.882475 206.767465l-20.248273 30.100846 1.613784 21.530702-.263514 22.823943c-.024044 2.054426-.691485 7.299234 13.010289 12.551809 9.999112-6.309886-4.564373-49.015941-5.283747-56.054003l11.171461-30.953297z" fill="#0E192B" opacity=".15172101"/><path d="M300.86627 223.87035c.506832 8.887629 19.188446 17.772345 26.621661 8.887629 7.433215-8.885687 13.731587-27.191056 13.731587-27.191056s-3.915204-26.189085-22.358309-14.614003l-17.994939 32.91743z" fill="#56E2C7"/><path d="M354.374392 115.6131551c-13.99991-1.6272302-22.251558-2.4651179-32.44013-3.9884617-1.089641-.2281617-2.077338-.382535-2.957321-.4534108h-.000962c-5.37992-.43108-6.709993 2.297152-2.319694 10.7624385.734762 1.3126582 7.774629 5.6749168 10.974306 6.153571 3.225644.4825378-3.703624.843713-.674173 5.1360669 3.030413 4.291383 3.541092 1.859275 0 11.806157-1.170426 3.63117-2.355278 7.603126-2.355278 7.603126l4.126786-.337873c-.669365-7.881775 5.799234-8.894425 8.030449-6.868155 2.230253 2.026271 0 9.119674-.446243 9.232299-.418353.105828-.15003 6.845823 12.762163 9.447838 3.811338-2.632113 7.589015-6.22833 11.028163-11.114875 5.863671-7.352634 8.691158-13.350861 9.546137-18.213134h.000961c1.435864-7.1060247.052896-17.3839835-15.275164-19.1655869" fill="#304159"/><path d="M377.867928 315.586834c-5.729028 2.65056-10.415541-.385447-10.415541-6.747762v-35.531096c0-6.361344 4.677857-13.754756 10.396306-16.428617l51.226573-23.958926c5.718449-2.673862 10.396306.342728 10.396306 6.705043l-.565498 35.991303c0 6.361344-4.687474 13.735337-10.415541 16.385897l-50.622605 23.584158z" fill="#162D59"/><path d="M394.293226 301.274587c-3.150629 1.457323-5.728067-.211656-5.728067-3.710784v-33.037821c0-3.498157 2.572629-7.564291 5.717488-9.034235l28.171008-13.176098c3.143897-1.469945 5.716526.188354 5.716526 3.687482l-.310639 33.291227c0 3.498156-2.577438 7.55361-5.728066 9.010933l-27.83825 12.969296z" fill="#0E192B"/><path d="M408.284288 268.899308c-4.894246 1.56218-6.31376 5.605983-6.31376 14.521768v68.297065c0 9.735225-1.07233 9.109965-1.624363 9.60027l1.282948.363117 3.305468-2.306861 8.306466-3.519516s1.431055-.374768 1.357002-3.873896V279.68699c0-9.143946-1.677258-12.267335-6.313761-10.787682" fill="#0E192B"/><path d="M409.567044 269.26194c-4.894246 1.56218-6.31376 5.605983-6.31376 14.521767v68.297066c0 9.735225-1.07233 9.109965-1.624363 9.60027l12.894882-5.463261s1.431055-.374768 1.357002-3.873895v-72.294265c0-9.143947-1.677258-12.267335-6.313761-10.787682" fill="#152133"/><path d="M97.20459233 82.1580395c0 .2980667-.23947089.6524456-.53472213.7912844l-2.51300167 1.1835284c-.29525125.1388389-.53472213.009709-.53472213-.2883576s.23947088-.6524455.53472213-.7912844l2.51300167-1.1835284c.29525124-.1388388.53472213-.009709.53472213.2883576" fill="#BAC6D8"/><path d="M127.798969 70.56334469c0 .29806663-.2394709.65244551-.5347221.79128441l-33.10757071 15.585875c-.29525125.1388388-.53472213.009709-.53472213-.2883577 0-.2980666.23947088-.6524455.53472213-.7912843l33.10757071-15.58587503c.2952512-.13883885.5347221-.00970901.5347221.28835762m-3.3162389 4.39245361c0 .2980666-.2394709.6524455-.5347221.7912843L94.15648384 89.7717487c-.29525125.1388388-.53472213.009709-.53472213-.2883576 0-.2980667.23947088-.6524456.53472213-.7912844L123.948008 74.6674406c.2952512-.1388388.5347221-.009709.5347221.2883577" fill="#EDCE35"/><path d="M157.9653757 61.97805483c0 .29806663-.2394709.65244552-.5347221.79128437L94.15648384 92.5565843c-.29525125.1388388-.53472213.009709-.53472213-.2883577 0-.2980666.23947088-.6524455.53472213-.7922552l63.27416976-29.7862742c.2952512-.13883885.5347221-.009709.5347221.28835763m-4.49282 4.89936101c0 .29806663-.2394709.65244553-.5347221.79128438L94.15686853 95.3403518c-.29525125.1388389-.53472213.0106799-.53472213-.2883576 0-.2980666.23947088-.6524455.53472213-.7912844l58.78096507-27.67165158c.2952512-.13883885.5347221-.00970901.5347221.28835762m-10.2002093 7.58613556c0 .2980666-.2394709.6524455-.5347221.7912844l-40.82641933 19.2199577c-.29525125.1388389-.53472213.009709-.53472213-.2883576s.23947088-.6534164.53472213-.7922553l40.82641933-19.2189868c.2952512-.1388389.5347221-.009709.5347221.2883576" fill="#FDFEFF"/><path d="M149.300569 76.9449804c0 .2980666-.2394709.6524455-.5347221.7912844l-46.85454576 22.0569306c-.29525124.1398098-.53472213.0106799-.53472213-.2873867 0-.2990375.23947089-.6534164.53472213-.7922553l46.85454576-22.0569306c.2952512-.1388389.5347221-.009709.5347221.2883576" fill="#1DFCF0"/><path d="M145.7120642 81.4186013c0 .2980666-.2394709.6524455-.5347221.7912844l-51.02076209 24.0181508c-.29525124.1398098-.53472213.0106799-.53472213-.2873867 0-.2990376.23947089-.6534164.53472213-.7922553l51.02076209-24.0181508c.2952512-.1388389.5347221-.0097091.5347221.2883576m-5.1833424 5.2244187c0 .2980666-.2394709.6524455-.5347222.7912843l-45.8370349 21.5782765c-.29525124.1388388-.53472212.0106799-.53472212-.2883576 0-.2980667.23947088-.6524456.53472213-.7912844l45.83703489-21.5782764c.2952513-.1388389.5347222-.0097091.5347222.2883576" fill="#ED4226"/><path d="M143.2723464 88.1357804c0 .2980666-.2394709.6524455-.5347221.7912844l-40.82641933 19.2199577c-.29525125.1388388-.53472213.009709-.53472213-.2883576 0-.2980667.23947088-.6534165.53472213-.7922553l40.82641933-19.2189868c.2952512-.1388389.5347221-.0097091.5347221.2883576m0 2.7843501c0 .2980666-.2394709.6524455-.5347221.7912844l-48.58085194 22.8695748c-.29525125.1398098-.53472213.0106799-.53472213-.2873867 0-.2990375.23947088-.6534164.53472213-.7922553l48.58085194-22.8695748c.2952512-.1388389.5347221-.009709.5347221.2883576m8.2746326-1.1110021c0 .2980666-.2394709.6524455-.5347221.7912844l-49.1011481 23.1152128c-.29525125.1388389-.53472213.009709-.53472213-.2883576s.23947088-.6524455.53472213-.7922553l49.1011481-23.1142419c.2952512-.1388389.5347221-.009709.5347221.2883576" fill="#BAC6D8"/><path d="M143.2723464 96.4888307c0 .2980666-.2394709.6524455-.5347221.7912844l-40.82641933 19.2199577c-.29525125.1388389-.53472213.009709-.53472213-.2883576s.23947088-.6534164.53472213-.7922553l40.82641933-19.2189868c.2952512-.1388389.5347221-.009709.5347221.2883576" fill="#1DFCF0"/><path d="M155.7189657 93.4138899c0 .2980666-.2394709.6524455-.5347221.7912844l-61.02756741 28.7289629c-.29525125.1398097-.53472213.0106799-.53472213-.2873868 0-.2990375.23947088-.6534164.53472213-.7922552l61.02756741-28.7289629c.2952512-.1388389.5347221-.009709.5347221.2883576m-12.4466193 8.643641c0 .2980667-.2394709.6524455-.5347221.7912844l-48.58085194 22.8695749c-.29525125.1398097-.53472213.0106799-.53472213-.2873867 0-.2990376.23947088-.6534165.53472213-.7922553l48.58085194-22.8695749c.2952512-.1388389.5347221-.009709.5347221.2883576" fill="#BAC6D8"/><path d="M155.7189657 98.982493c0 .2980667-.2394709.6524456-.5347221.7912844l-61.02756741 28.7289629c-.29525125.1398097-.53472213.0106799-.53472213-.2873867 0-.2990376.23947088-.6534165.53472213-.7922553l61.02756741-28.7289629c.2952512-.1388388.5347221-.009709.5347221.2883576m-5.7506672 5.4915136c0 .2980666-.2394709.6524455-.5347221.7912844l-55.27641935 26.0220907c-.29621298.1388388-.53568386.009709-.53568386-.2883577 0-.2980666.23947088-.6524455.53568386-.7912843l55.27641935-26.0220907c.2952512-.1388389.5347221-.009709.5347221.2883576" fill="#C2F438"/><path d="M143.2723464 110.4104842c0 .2980666-.2394709.6524455-.5347221.7912843l-48.58085194 22.8695749c-.29525125.1398098-.53472213.0106799-.53472213-.2873867 0-.2990375.23947088-.6534164.53472213-.7922553l48.58085194-22.8695749c.2952512-.1388388.5347221-.009709.5347221.2883577" fill="#1DFCF0"/><path d="M151.546979 109.2994821c0 .2980666-.2394709.6524455-.5347221.7912843l-56.85558071 26.7658009c-.29525125.1388389-.53472213.009709-.53472213-.2883576s.23947088-.6534164.53472213-.7922553l56.85558071-26.76483c.2952512-.1388388.5347221-.009709.5347221.2883577m4.1719867.8203143c0 .2980666-.2394709.6524455-.5347221.7912844l-61.02756741 28.7289628c-.29525125.1398098-.53472213.0106799-.53472213-.2873867 0-.2990375.23947088-.6534164.53472213-.7922553l61.02756741-28.7289628c.2952512-.1388389.5347221-.0097091.5347221.2883576" fill="#C2F438"/><path d="M248.65174843 100.6034129c0 .2980666-.23947088.6524455-.53472213.7912844l-2.51300167 1.1835284c-.29525124.1388389-.53472213.009709-.53472213-.2883576s.23947089-.6524455.53472213-.7912844l2.51300167-1.1835284c.29525125-.1388389.53472213-.009709.53472213.2883576" fill="#BAC6D8"/><path d="M279.2461251 89.00881516c0 .29806663-.2394708.65244554-.5347221.79128434l-33.10757071 15.585875c-.29525125.1388389-.53472213.009709-.53472213-.2883576s.23947088-.6524455.53472213-.7912844L278.711403 88.72045754c.2952513-.13883885.5347221-.00970901.5347221.28835762m-3.3161427 4.39245354c0 .2980667-.2394709.6524455-.5347222.7912844l-29.79152408 14.0246661c-.29525125.1388388-.53472213.009709-.53472213-.2883577 0-.2980666.23947088-.6524455.53472213-.7912843l29.79152408-14.0246661c.2952513-.1388389.5347222-.009709.5347222.2883576" fill="#EDCE35"/><path d="M309.412628 80.4234282c0 .29806664-.2394709.65244553-.5347222.79128438l-63.27416968 29.78724502c-.29525125.1388389-.53472213.009709-.53472213-.2883576s.23947088-.6524455.53472213-.7922553l63.27416968-29.78627412c.2952513-.13883885.5347222-.009709.5347222.28835762m-4.4929162 4.89936102c0 .29806663-.2394709.65244552-.5347221.79128438l-58.78096507 27.6716516c-.29525124.1388389-.53472213.0106799-.53472213-.2883576 0-.2980667.23947089-.6524455.53472213-.7912844l58.78096507-27.6716516c.2952512-.13883885.5347221-.00970901.5347221.28835762m-10.2002093 7.58613558c0 .2980666-.2394709.6524455-.5347221.7912844l-40.82641933 19.2199577c-.29525124.1388388-.53472213.009709-.53472213-.2883576 0-.2980667.23947089-.6534165.53472213-.7922553l40.82641933-19.2189868c.2952512-.1388389.5347221-.009709.5347221.2883576" fill="#FDFEFF"/><path d="M300.7478213 95.3904508c0 .2980667-.2394709.6524456-.5347221.7912844l-46.85454578 22.0569307c-.29525125.1398098-.53472213.0106799-.53472213-.2873867 0-.2990376.23947088-.6534164.53472213-.7922553l46.85454578-22.0569307c.2952512-.1388388.5347221-.009709.5347221.2883576" fill="#1DFCF0"/><path d="M297.1592203 99.8640717c0 .2980667-.2394709.6524456-.5347221.7912844l-51.02076208 24.0181509c-.29525125.1398097-.53472214.0106799-.53472214-.2873868 0-.2990375.23947089-.6534164.53472214-.7922552l51.02076208-24.0181509c.2952512-.1388388.5347221-.009709.5347221.2883576m-5.1832462 5.2243216c0 .2980667-.2394709.6524456-.5347222.7912844l-45.83703492 21.5782765c-.29525125.1388388-.53472213.0106799-.53472213-.2883577 0-.2980666.23947088-.6524455.53472213-.7912843l45.83703492-21.5782765c.2952513-.1388388.5347222-.009709.5347222.2883576" fill="#ED4226"/><path d="M294.7195025 106.5812508c0 .2980667-.2394709.6524456-.5347221.7912844l-40.82641933 19.2199577c-.29525124.1388389-.53472213.0097091-.53472213-.2883576 0-.2980666.23947089-.6534164.53472213-.7922553l40.82641933-19.2189868c.2952512-.1388388.5347221-.009709.5347221.2883576m0 2.7843502c0 .2980666-.2394709.6524455-.5347221.7912843l-48.58085194 22.8695749c-.29525125.1398098-.53472213.0106799-.53472213-.2873867 0-.2990375.23947088-.6534164.53472213-.7922553l48.58085194-22.8695749c.2952512-.1388388.5347221-.009709.5347221.2883577m8.2747288-1.1110992c0 .2980666-.2394709.6524455-.5347221.7912843l-49.10114813 23.1152129c-.29525124.1388388-.53472213.009709-.53472213-.2883576 0-.2980667.23947089-.6524456.53472213-.7922553l49.10114813-23.114242c.2952512-.1388388.5347221-.009709.5347221.2883577M181.11894 175.996794c.05578.253405-.065398.537879-.27217.63594l-1.754196.837888c-.205811.098061-.418353-.027185-.475095-.28059-.05578-.252435.065398-.53788.27217-.635941l1.754196-.836916c.20581-.099032.419314.026214.475095.279619" fill="#BAC6D8"/><path d="M203.007636 168.185604c.055781.253405-.065397.537879-.272169.63594l-23.11423 11.031378c-.206772.098061-.419315-.027185-.475095-.27962-.05578-.253405.065398-.53885.27217-.636911l23.114229-11.030407c.205811-.099032.419315.026214.475095.27962m-1.782375 3.50738c.055781.253405-.065397.537879-.272169.63594l-20.799345 9.926493c-.20581.098061-.418353-.027186-.475095-.27962-.05578-.253405.06636-.53885.27217-.636911l20.799344-9.925522c.205811-.099032.419315.026215.475095.27962" fill="#EDCE35"/><path d="M225.12609 162.899533c.055781.253405-.065397.537879-.27217.63594l-44.176126 21.082146c-.20581.099032-.418353-.026214-.475095-.27962-.05578-.253405.06636-.537879.27217-.636911l44.176126-21.081175c.205811-.099032.419315.026215.475095.27962m-2.612829 3.859526c.05578.253405-.065398.537879-.27217.63594l-41.038962 19.585016c-.20581.099032-.419314-.026214-.475094-.279619-.055781-.253405.065397-.537879.272169-.63594l41.038962-19.585017c.20581-.099032.419315.026215.475095.27962" fill="#FDFEFF"/><path d="M315.96557 152.895271c2.41202.703903 5.626124 7.578854 6.650366 4.953537 1.024243-2.624345 1.985012-5.216651 1.985012-5.216651s3.022719-4.26614 4.126785-.336903c1.104067 3.929237 4.419152 18.204395 4.419152 18.204395s-17.359235 11.066331-16.776426 9.865326c.582809-1.201004 1.553195-18.836452 1.553195-18.836452l1.568582-.803906-3.776716-2.125302.25005-5.704044z" fill="#304159"/><path d="M320.442137 178.352006c-7.760203 4.280703-7.4361 3.841856-5.600156-3.080669 1.835943-6.922525.873251-16.672313.873251-16.672313h3.500699l5.940609 5.507921m-9.911594-26.149958c3.018872 2.374824 4.992343 3.42631 4.834619 3.100087-.157724-.327194-4.364333-6.150658-4.364333-6.150658s-1.567621 1.979667-.766499 2.710756" fill="#304159"/></g></g></svg>