<svg width="50" height="50" viewBox="0 0 50 50" xmlns="http://www.w3.org/2000/svg"><defs><linearGradient x1="9.775%" y1="123.674%" x2="86.721%" y2="0%" id="a"><stop stop-color="#F1E478" offset="0%"/><stop stop-color="#FF7840" offset="100%"/></linearGradient><filter x="-21.7%" y="-19.2%" width="160.9%" height="153.8%" filterUnits="objectBoundingBox" id="b"><feOffset dx="2" dy="2" in="SourceAlpha" result="shadowOffsetOuter1"/><feGaussianBlur stdDeviation="2" in="shadowOffsetOuter1" result="shadowBlurOuter1"/><feColorMatrix values="0 0 0 0 0 0 0 0 0 0 0 0 0 0 0 0 0 0 0.0899003623 0" in="shadowBlurOuter1" result="shadowMatrixOuter1"/><feMerge><feMergeNode in="shadowMatrixOuter1"/><feMergeNode in="SourceGraphic"/></feMerge></filter></defs><g fill="none"><circle fill="url(#a)" cx="25" cy="25" r="25"/><g filter="url(#b)" transform="translate(14.053 12.208)" fill="#FFF"><path d="M8.422 25.695c-.302 0-.604-.072-.875-.207l-2.154-1.076-2.153 1.076a1.957 1.957 0 0 1-2.832-1.75V2.031A1.96 1.96 0 0 1 2.365.074h18.173a1.94 1.94 0 0 1 1.383.574c.37.37.574.86.574 1.384v21.706a1.958 1.958 0 0 1-1.956 1.956h-.001c-.3 0-.604-.07-.873-.205l-2.156-1.077-2.153 1.076a1.99 1.99 0 0 1-1.751 0l-2.153-1.076-2.154 1.076c-.27.136-.573.207-.876.207zm-3.029-3.823a1.2 1.2 0 0 1 .537.126l2.492 1.247 2.493-1.247a1.199 1.199 0 0 1 1.072 0l2.493 1.247 2.492-1.247a1.199 1.199 0 0 1 1.072 0l2.05 1.026V2.474H2.807v20.549l2.05-1.026c.169-.083.353-.125.536-.125z"/><path d="M16.156 7.338H6.79c-.662 0-1.2-.714-1.2-1.376 0-.662.537-1.376 1.2-1.376h9.367c.663 0 1.2.714 1.2 1.376 0 .662-.537 1.376-1.2 1.376zm0 4.586H6.79c-.662 0-1.2-.713-1.2-1.376 0-.662.537-1.376 1.2-1.376h9.367c.663 0 1.2.714 1.2 1.376 0 .663-.537 1.376-1.2 1.376z"/></g></g></svg>