<svg width="479" height="130" viewBox="0 0 479 130" xmlns="http://www.w3.org/2000/svg" xmlns:xlink="http://www.w3.org/1999/xlink"><defs><linearGradient x1="50%" y1="51.408%" x2="50%" y2="98.768%" id="a"><stop stop-color="#0062AD" offset="0%"/><stop stop-color="#01427C" offset="100%"/></linearGradient><linearGradient x1="27.044%" y1="100%" x2="27.044%" y2="0%" id="b"><stop stop-color="#8BBCDC" offset="0%"/><stop stop-color="#006EB9" offset="100%"/></linearGradient><linearGradient x1="96.198%" y1="4.217%" x2="79.053%" y2="22.56%" id="c"><stop stop-color="#FFF" stop-opacity="0" offset="0%"/><stop stop-color="#FFF" offset="100%"/></linearGradient><linearGradient x1="1.75%" y1="48.25%" x2="85.824%" y2="48.25%" id="d"><stop stop-color="#7AB6DB" offset="0%"/><stop stop-color="#7AB6DB" stop-opacity="0" offset="100%"/></linearGradient><text id="f" font-family="Arial-BoldMT, Arial" font-size="54" font-weight="bold" letter-spacing="-3.5" fill="#FEFFFF"><tspan x="112" y="65">PCI </tspan> <tspan x="203.021" y="65" letter-spacing="-1.1">compliant</tspan></text><filter x="-.9%" y="-5%" width="101.8%" height="110%" filterUnits="objectBoundingBox" id="e"><feOffset in="SourceAlpha" result="shadowOffsetOuter1"/><feGaussianBlur stdDeviation="1" in="shadowOffsetOuter1" result="shadowBlurOuter1"/><feColorMatrix values="0 0 0 0 0 0 0 0 0 0 0 0 0 0 0 0 0 0 0.400532156 0" in="shadowBlurOuter1"/></filter></defs><g fill="none" fill-rule="evenodd"><rect fill="url(#a)" width="479" height="92" rx="14"/><path d="M14 0h451c7.732 0 14 6.268 14 14v34H0V14C0 6.268 6.268 0 14 0z" fill="url(#b)"/><path d="M82.185 33L54.69 70.52 41.897 50.97l-13.883 6.063h5.162L52.743 85.76l4.386-3.206 30.568-47.083c.195.471.303.987.303 1.529v51a4 4 0 0 1-4 4H24a4 4 0 0 1-4-4V37a4 4 0 0 1 4-4h58.185z" fill="#FFF"/><path fill="url(#c)" d="M88.953 33.537L57.13 82.554l8.246 2.02 42.96-79.23z"/><path d="M53.5 7.5c-8.284 0-15 6.716-15 15v11c0 8.284 6.716 15 15 15 8.284 0 15-6.716 15-15v-11c0-8.284-6.716-15-15-15zm0-7c12.15 0 22 9.85 22 22v11c0 12.15-9.85 22-22 22s-22-9.85-22-22v-11c0-12.15 9.85-22 22-22z" fill="#FFF" fill-rule="nonzero"/><path fill="url(#d)" d="M24 37h35v8H24zm0 11h35v8H24zm0 11h35v8H24zm0 11h35v8H24zm0 11h35v8H24z"/><path fill="#005FA9" d="M28.014 57.033l13.883-6.063L54.69 70.52l16.497-22.511 8.358.02-22.416 34.525-4.386 3.206-19.567-28.727z"/><g fill="#FEFFFF"><use filter="url(#e)" xlink:href="#f"/><use xlink:href="#f"/></g><text font-family="ArialMT, Arial" font-size="30" fill="#0E2B57"><tspan x="239" y="122">by </tspan> <tspan x="279.02" y="122" letter-spacing=".5">ControlCase</tspan></text></g></svg>