<svg width="150" height="136" viewBox="0 0 150 136" xmlns="http://www.w3.org/2000/svg" xmlns:xlink="http://www.w3.org/1999/xlink"><defs><path id="a" d="M0 0h200v142H0z"/><linearGradient x1="-2.436%" y1="73.23%" x2="44.505%" y2="73.23%" id="c"><stop stop-color="#698C97" stop-opacity=".032" offset="0%"/><stop stop-color="#0041B1" stop-opacity=".484" offset="100%"/></linearGradient><filter x="-7.9%" y="-17.1%" width="115.9%" height="134.2%" filterUnits="objectBoundingBox" id="d"><feGaussianBlur stdDeviation="3" in="SourceGraphic"/></filter><linearGradient x1="0%" y1="50%" x2="92.401%" y2="67.024%" id="e"><stop stop-color="#E8EEFF" offset="0%"/><stop stop-color="#CAD5F6" offset="100%"/></linearGradient><linearGradient x1="54.303%" y1="-100.234%" x2="50%" y2="100%" id="f"><stop stop-color="#9DE85F" offset="0%"/><stop stop-color="#63CC31" offset="100%"/></linearGradient></defs><g transform="translate(-29 -6)" fill="none" fill-rule="evenodd"><mask id="b" fill="#fff"><use xlink:href="#a"/></mask><g mask="url(#b)" fill-rule="nonzero"><g transform="rotate(-2 1943.924 -872.784)"><path fill-opacity=".36" fill="url(#c)" filter="url(#d)" d="M82.777 27H0l3.349 13.5 4.457 20.525L47.86 79.572l65.351-35.2z"/><path d="M126.901 19.127L104.308 6.043a6.988 6.988 0 0 0-6.86 0L38.016 40.561l-4.573-1.09v3.91a2.24 2.24 0 0 0 1.143 1.963l25.207 14.61c2.123 1.2 4.736 1.2 6.805 0l62.864-36.535a2.242 2.242 0 0 0 1.143-1.962v1.158V17.6l-3.703 1.527z" fill="url(#e)"/><path d="M34.585 37.563L97.448 1.028a6.988 6.988 0 0 1 6.86 0l25.152 14.61a2.256 2.256 0 0 1 0 3.925L66.596 56.1c-2.123 1.199-4.736 1.199-6.805 0L34.584 41.49c-1.524-.874-1.524-3.054 0-3.926z" fill="#FFF"/><path fill="#0B3A81" d="M41.228 35.218L95.869 3.535l29.399 17.01L70.68 52.228z"/><path d="M111.406 8.258l5.553 3.216a.42.42 0 0 1 0 .763.834.834 0 0 1-.871 0l-5.5-3.216a.42.42 0 0 1 0-.763c.219-.164.545-.164.818 0zm4.879 19.912l3.702-2.127c.327-.218.762.054.762.436 0 .49-.272.927-.653 1.2l-3.702 2.126c-.327.218-.762-.055-.762-.436a1.17 1.17 0 0 1 .653-1.2z" fill="#83AFF6"/><ellipse fill="#83AFF6" cx="52.332" cy="46.122" rx="3.866" ry="2.399"/></g></g><g fill-rule="nonzero" mask="url(#b)"><path d="M106.324 60.425L4.807 1.518C2.713.305 1 1.295 1 3.718v22.721c0 2.422 1.71 5.4 3.801 6.619l35.555 20.716 6.93 4.143 7.323 22.066 8.873-12.654 41.722 24.17c2.1 1.205 4.927-.764 4.927-3.187V67.034c0-2.422-1.713-5.396-3.807-6.609z" fill="url(#f)" transform="rotate(5 -17.589 859.07)"/><g fill="#FFF"><path d="M105.354 36.653c.204.13.356.417.337.639l-.723 8.261c-.02.221-.203.297-.408.168l-4.933-3.464c-.205-.13-.357-.417-.338-.638l.724-8.272c.02-.222.203-.297.408-.167l4.933 3.473zm7.09 5.286c.205.129.356.416.337.638l-.723 8.261c-.02.222-.203.297-.408.168l-4.934-3.439c-.206-.129-.358-.416-.338-.638l.723-8.271c.02-.222.203-.298.408-.168l4.935 3.449zm7.343 5.341c.205.13.357.417.337.639l-.723 8.26c-.019.222-.203.298-.408.168l-4.93-3.502c-.205-.13-.357-.417-.337-.638l.723-8.272c.02-.221.203-.297.408-.167l4.93 3.512z" opacity=".4"/><path d="M89.317 28.156c-.114 1.307-.566 1.898-1.356 1.771l1.251 4.003-1.618-1.114-1.063-3.529-.915-.653-.229 2.614-1.292-.914.72-8.24 2.208 1.567c.915.653 1.541 1.337 1.883 1.998.4.664.496 1.531.411 2.497zm-1.645-.144c.18-.099.319-.373.358-.827a2.03 2.03 0 0 0-.19-1.105c-.144-.299-.465-.556-.837-.874l-.967-.715-.214 2.443.972.658c.367.375.698.519.878.42zm5.695 2.818c-.118.047-.247.207-.266.435-.02.227.017.46.162.758.15.242.456.67 1.035 1.236.58.566.927 1.169 1.218 1.767.291.598.401 1.295.337 2.033-.065.739-.332 1.174-.75 1.366-.416.193-.974.03-1.62-.428-.915-.653-1.738-1.698-2.409-3.188l.87-.783c.58 1.196 1.135 2.047 1.678 2.38.212.19.439.21.614.168.175-.042.247-.207.267-.435a1.254 1.254 0 0 0-.162-.758 6.338 6.338 0 0 0-.824-1.045c-.683-.69-1.139-1.36-1.43-1.958-.29-.598-.401-1.295-.337-2.033.065-.739.337-1.23.75-1.366.411-.136.974-.03 1.563.423.378.262.802.643 1.16 1.132.357.49.714.978.953 1.515l-.765.906c-.436-.897-.954-1.515-1.492-1.906-.263-.251-.433-.266-.552-.22zm33.331 20.323l1.184.848-4.45 8.371-1.183-.847zm7.822 10.39l-2.012 3.345-.745-.537-1.071-5.62-.543 5.163-1.276-.937.865-8.226 1.756 1.274 1.014 5.613 1.962-3.407 1.757 1.275-.865 8.226-1.276-.937zm8.816 11.134c-.672.388-1.458.248-2.311-.358s-1.557-1.54-2.054-2.797c-.499-1.257-.656-2.478-.531-3.669.125-1.191.555-2.006 1.169-2.4.67-.39 1.458-.25 2.31.357.853.606 1.557 1.54 2.055 2.797.498 1.257.712 2.484.587 3.675-.188 1.242-.555 2.006-1.225 2.395zm-.165-3.344c.078-.738-.015-1.493-.277-2.266-.262-.773-.661-1.332-1.142-1.67-.48-.336-.933-.384-1.303-.136-.375.305-.599.797-.676 1.535a4.85 4.85 0 0 0 .283 2.21c.268.715.662 1.33 1.142 1.668.48.337.933.385 1.303.137.37-.248.593-.74.67-1.478zm8.046 1.651l1.293.914-.721 8.24-1.293-.914-2.35-7.135-.451 5.172-1.293-.915.721-8.24 1.24.853 2.392 7.31zm6.611 6.651l-.582 6.649-1.292-.915.581-6.648-1.67-1.177.14-1.591 4.631 3.268-.14 1.591zm7.646 4.052l1.292.915-.72 8.24-1.293-.915.283-3.239-2.315-1.634-.284 3.239-1.292-.914.72-8.24 1.293.914-.303 3.466 2.316 1.635z"/></g></g></g></svg>