<svg width="150" height="176" viewBox="0 0 150 176" xmlns="http://www.w3.org/2000/svg" xmlns:xlink="http://www.w3.org/1999/xlink"><defs><path id="a" d="M0 0h200v200H0z"/><path id="c" d="M0 0h325v248H0z"/><linearGradient x1="-2.436%" y1="73.23%" x2="44.78%" y2="73.23%" id="e"><stop stop-color="#7EDEFF" stop-opacity=".032" offset="0%"/><stop stop-color="#0041B1" stop-opacity=".41" offset="99.418%"/></linearGradient><filter x="-3.7%" y="-7.1%" width="107.4%" height="114.3%" filterUnits="objectBoundingBox" id="f"><feGaussianBlur stdDeviation="1.2" in="SourceGraphic"/></filter><linearGradient x1="18.567%" y1="73.23%" x2="71.526%" y2="73.23%" id="g"><stop stop-color="#7EDEFF" stop-opacity=".032" offset="0%"/><stop stop-color="#182442" stop-opacity=".455" offset="100%"/></linearGradient><filter x="-2%" y="-12.4%" width="104.1%" height="124.8%" filterUnits="objectBoundingBox" id="h"><feGaussianBlur stdDeviation=".4" in="SourceGraphic"/></filter><filter x="-1%" y="-1.8%" width="102.1%" height="103.6%" filterUnits="objectBoundingBox" id="i"><feGaussianBlur stdDeviation=".81" in="SourceGraphic"/></filter><linearGradient x1="104.152%" y1="0%" x2="38.641%" y2="90.918%" id="j"><stop stop-color="#FFF" offset="0%"/><stop stop-color="#0972E3" offset="100%"/></linearGradient><linearGradient x1="99.229%" y1="17.619%" x2="12.139%" y2="55.324%" id="k"><stop stop-color="#F9FBFF" offset="0%"/><stop stop-color="#E4E9F6" offset="100%"/></linearGradient><linearGradient x1="45.809%" y1="36.418%" x2="64.432%" y2="78.236%" id="l"><stop stop-color="#495CCE" offset="0%"/><stop stop-color="#495CCE" offset="20.291%"/><stop stop-color="#14279B" offset="100%"/></linearGradient><linearGradient x1="0%" y1="67.199%" y2="50%" id="m"><stop stop-color="#CFD4E6" offset="0%"/><stop stop-color="#A1A9C9" offset="100%"/></linearGradient><filter x="-3%" y="-5.1%" width="105.9%" height="110.2%" filterUnits="objectBoundingBox" id="n"><feGaussianBlur stdDeviation=".4" in="SourceGraphic"/></filter><linearGradient x1="-37.197%" y1="91.702%" x2="85.793%" y2="20.891%" id="o"><stop stop-color="#ECF5FB" offset="0%"/><stop stop-color="#FFF" offset="100%"/></linearGradient><linearGradient x1="82.56%" y1="16.015%" x2="79.558%" y2="20.004%" id="p"><stop stop-color="#F2F8FF" offset="0%"/><stop stop-color="#E1EFFF" offset="100%"/></linearGradient><linearGradient x1="100%" y1="0%" x2="3.822%" y2="76.501%" id="q"><stop stop-color="#FBFCFF" offset="0%"/><stop stop-color="#E4E9F6" offset="100%"/></linearGradient><linearGradient x1="133.009%" y1="-92.01%" x2="-20.963%" y2="114.742%" id="r"><stop stop-color="#FBFCFF" offset="0%"/><stop stop-color="#E4E9F6" offset="100%"/></linearGradient><linearGradient x1="-5.815%" y1="53.884%" x2="93.009%" y2="44.13%" id="s"><stop stop-color="#1ABAD1" offset="0%"/><stop stop-color="#26FB92" offset="100%"/></linearGradient><linearGradient x1="93.99%" y1="28.084%" x2="-49.829%" y2="93.268%" id="t"><stop stop-color="#00BEFF" offset="0%"/><stop stop-color="#005EFF" offset="100%"/></linearGradient><linearGradient x1="50%" y1="-26.026%" x2="50%" y2="50%" id="u"><stop stop-color="#D2D2D2" stop-opacity="0" offset="0%"/><stop stop-color="#3B4348" stop-opacity=".061" offset="100%"/></linearGradient><linearGradient x1="13.095%" y1="110.146%" x2="50%" y2="50%" id="v"><stop stop-color="#D2D2D2" stop-opacity="0" offset="0%"/><stop stop-color="#3B4348" stop-opacity=".061" offset="100%"/></linearGradient><linearGradient x1="-24.348%" y1="222.525%" x2="81.492%" y2="0%" id="w"><stop stop-color="#29A584" offset="0%"/><stop stop-color="#26FB92" offset="100%"/></linearGradient><linearGradient x1="32.969%" y1="0%" x2="50%" y2="100%" id="x"><stop stop-color="#FF3030" offset="0%"/><stop stop-color="#FF9898" offset="96.706%"/></linearGradient><linearGradient x1="81.283%" y1="0%" x2="0%" y2="167.957%" id="y"><stop stop-color="#FFC600" offset="0%"/><stop stop-color="#FF4900" offset="100%"/></linearGradient><filter x="-3%" y="-5.1%" width="105.9%" height="110.2%" filterUnits="objectBoundingBox" id="z"><feGaussianBlur stdDeviation=".4" in="SourceGraphic"/></filter><linearGradient x1="102.112%" y1="4.291%" x2="76.71%" y2="50%" id="A"><stop stop-color="#FFC6C6" offset="0%"/><stop stop-color="#DF5757" offset="100%"/></linearGradient><linearGradient x1="110.881%" y1="0%" x2="48.693%" y2="83.677%" id="B"><stop stop-color="#FFAFAF" offset="0%"/><stop stop-color="#FF5C5C" offset="100%"/></linearGradient><linearGradient x1="50%" y1="0%" x2="50%" y2="100%" id="C"><stop stop-color="#26F3BA" offset="0%"/><stop stop-color="#02CE6C" offset="100%"/></linearGradient><linearGradient x1="76.755%" y1="42.003%" x2="21.697%" y2="118.796%" id="D"><stop stop-color="#355CC5" offset="0%"/><stop stop-color="#182F93" offset="100%"/></linearGradient><filter x="-21.4%" y="-13.4%" width="142.8%" height="126.9%" filterUnits="objectBoundingBox" id="E"><feGaussianBlur stdDeviation="4.091" in="SourceGraphic"/></filter><linearGradient x1="82.051%" y1="139.163%" x2="36.98%" y2="16.012%" id="F"><stop stop-color="#FFF" offset="0%"/><stop stop-color="#FFF" stop-opacity="0" offset="100%"/></linearGradient><linearGradient x1="90.787%" y1="152.511%" x2="38.794%" y2="25.95%" id="G"><stop stop-color="#FFF" offset="0%"/><stop stop-color="#FFF" stop-opacity="0" offset="100%"/></linearGradient><linearGradient x1="50%" y1="0%" x2="50%" y2="100%" id="H"><stop stop-color="#FFF" offset="0%"/><stop stop-color="#FFF" stop-opacity=".188" offset="100%"/></linearGradient><filter x="-3.3%" y="-3.4%" width="106.6%" height="106.9%" filterUnits="objectBoundingBox" id="I"><feGaussianBlur stdDeviation=".416" in="SourceGraphic"/></filter><linearGradient x1="134.655%" y1="6.785%" x2="22.779%" y2="136.262%" id="J"><stop stop-color="#FFF" offset="0%"/><stop stop-color="#0972E3" offset="100%"/></linearGradient><linearGradient x1="25.524%" y1="77.388%" x2="48.919%" y2="73.23%" id="K"><stop stop-color="#90E3FF" stop-opacity=".032" offset="0%"/><stop stop-color="#0047C6" stop-opacity=".894" offset="100%"/></linearGradient><filter x="-2.4%" y="-7.6%" width="104.7%" height="115.2%" filterUnits="objectBoundingBox" id="L"><feGaussianBlur stdDeviation=".475" in="SourceGraphic"/></filter><linearGradient x1="23.184%" y1="59.195%" y2="47.22%" id="M"><stop stop-color="#2A40D8" offset="0%"/><stop stop-color="#737FFF" offset="100%"/></linearGradient><linearGradient x1="50%" y1="91.801%" x2="50%" y2="-23.334%" id="N"><stop stop-color="#FFF" offset="0%"/><stop stop-color="#0BDEAB" offset="100%"/></linearGradient><linearGradient x1="153.171%" y1="-59.721%" x2="-42.305%" y2="152.342%" id="O"><stop stop-color="#2D9AC0" offset="0%"/><stop stop-color="#6CE8AB" offset="100%"/></linearGradient><linearGradient x1="-10.735%" y1="-5.527%" x2="203.566%" y2="200.664%" id="P"><stop stop-color="#2D9AC0" offset="0%"/><stop stop-color="#6CE8AB" offset="100%"/></linearGradient><linearGradient x1="50%" y1="101.793%" x2="50%" y2="25.062%" id="Q"><stop stop-color="#FFF" offset="0%"/><stop stop-color="#FFF" stop-opacity=".043" offset="95.693%"/><stop stop-color="#FFF" stop-opacity="0" offset="100%"/></linearGradient><linearGradient x1="50%" y1="101.793%" x2="50%" y2="17.567%" id="R"><stop stop-color="#FFF" offset="0%"/><stop stop-color="#FFF" stop-opacity=".043" offset="95.693%"/><stop stop-color="#FFF" stop-opacity="0" offset="100%"/></linearGradient></defs><g fill="none" fill-rule="evenodd"><mask id="b" fill="#fff"><use xlink:href="#a"/></mask><g mask="url(#b)"><g transform="translate(-125 -48)"><mask id="d" fill="#fff"><use xlink:href="#c"/></mask><g opacity=".8" mask="url(#d)"><path fill-opacity=".16" fill="url(#e)" fill-rule="nonzero" filter="url(#f)" d="M137.946 180.82l-96.87.03v-50.373l43.43.015 31.297 15.196z" transform="matrix(-1 0 0 1 380.612 28)"/><path fill-opacity=".16" fill="url(#g)" fill-rule="nonzero" filter="url(#h)" d="M230.408 143.253l-55.106.447-.94-7.066 53.648-2.624 4.937 3.756z" transform="matrix(-1 0 0 1 380.612 28)"/><path fill="#BAC2DB" fill-rule="nonzero" opacity=".2" d="M186.24 144.5l-27.034 15.765 32.756 18.882 27.091-15.735z"/><path d="M54.298 96.562l200.217 114.72a2 2 0 0 1 .001 3.47l-27.848 15.975a2 2 0 0 1-1.99 0L25.995 116.763a3.2 3.2 0 0 1-.02-5.54l25.12-14.649a3.2 3.2 0 0 1 3.203-.012z" fill="#CAD1E5" fill-rule="nonzero" opacity=".1" filter="url(#i)" transform="matrix(-1 0 0 1 380.612 28)"/><g fill-rule="nonzero"><path fill="url(#j)" d="M60.076 23.512v20.256l-27.034 15.62V39.163z" transform="matrix(-1 0 0 1 227.178 111.92)"/><path fill="#FFF" d="M194.136 151.08l25.146-14.504-26.577-15.793-25.604 14.648z"/><path fill="#0DC4FF" opacity=".7" d="M194.136 112.2L167.1 127.964l32.756 18.883 27.092-15.736z"/><path fill="#FFF" d="M167.101 129.624v-1.66l32.756 18.883v1.688z"/></g><path fill="url(#k)" fill-rule="nonzero" d="M137.553 180.85v-44.203l57.273-33.044v44.116z" transform="matrix(-1 0 0 1 380.612 28)"/><path fill="#252B4F" fill-rule="nonzero" opacity=".2" d="M232.016 194.916v7.554l-6.522-3.777z"/><path fill="#BAC2DB" fill-rule="nonzero" d="M317.876 99.426L125.814 210.331l31.87 18.281 190.397-109.84z"/><path d="M222.72 207.771c1.415-1.674 1.173-5.192-.725-8.479-1.075-1.86-2.479-3.3-3.886-4.127l26.232-14.868c-.1-1.836.439-3.341 1.615-4.02 2.17-1.254 5.693.782 7.866 4.546 2.083 3.607 2.171 7.493.264 8.914l.026.026-31.392 18.008z" fill="url(#l)" fill-rule="nonzero" transform="matrix(-1 0 0 1 380.612 28)"/><path d="M222.72 207.771c1.415-1.674 1.173-5.192-.725-8.479-1.075-1.86-2.479-3.3-3.886-4.127l26.232-14.868c-.1-1.836.439-3.341 1.615-4.02 2.17-1.254 5.693.782 7.866 4.546 2.083 3.607 2.171 7.493.264 8.914l.026.026-31.392 18.008z" fill="url(#l)" fill-rule="nonzero" transform="matrix(-1 0 0 1 380.612 28)"/><path d="M162.824 222.869l180.596-109.05.1 9.21-83.238 47.983-103.111 59.44 3.578-5.566a6.4 6.4 0 0 1 2.075-2.017z" fill="#BAC2DB" fill-rule="nonzero"/><path fill="#495CCE" fill-rule="nonzero" d="M315.526 98.1l-185.78 107.228 31.87 18.282L348.38 115.813z"/><g opacity=".2" fill-rule="nonzero"><path fill-opacity=".2" fill="#000" d="M285.255 152.373l-15.362 8.87-31.726-18.34 15.362-8.868zm-30.725 17.739l-15.362 8.869-31.754-18.31 15.39-8.898z"/><path fill-opacity=".385" fill="#18052A" d="M161.355 187.25l31.755 18.338-15.363 8.869-31.754-18.339zm62.479.6l-15.362 8.869-31.755-18.339 15.363-8.87zm92.146-53.243l-15.363 8.897-31.726-18.338 15.363-8.87z"/></g><path fill="#E4E9F7" fill-rule="nonzero" d="M345.928 127.388l-186.236 107.57.194 1.609 185.915-107.34z"/><g transform="matrix(-1 0 0 1 234.19 186.882)" fill-rule="nonzero"><path fill="#A1A9C9" d="M5.407 7.29l4.177-2.489-5.922-3.433z"/><ellipse fill="#FFF" transform="rotate(-30.001 3.646 4.257)" cx="3.646" cy="4.257" rx="2.03" ry="3.52"/><ellipse fill="#A1A9C9" transform="rotate(-30.001 3.646 4.257)" cx="3.646" cy="4.257" rx="1.23" ry="2.147"/></g><g transform="matrix(-1 0 0 1 215.023 198.04)" fill-rule="nonzero"><path fill="#A1A9C9" d="M5.521 7.262l4.206-2.49-5.95-3.433z"/><ellipse fill="#FFF" transform="rotate(-30.001 3.769 4.217)" cx="3.769" cy="4.217" rx="2.03" ry="3.52"/><ellipse fill="url(#m)" transform="rotate(-30.001 3.769 4.217)" cx="3.769" cy="4.217" rx="1.23" ry="2.147"/></g><g transform="matrix(-1 0 0 1 195.856 208.912)" fill-rule="nonzero"><path fill="#A1A9C9" d="M5.407 7.376l4.177-2.489-5.922-3.433z"/><ellipse fill="#FFF" transform="rotate(-30.001 3.656 4.343)" cx="3.656" cy="4.343" rx="2.03" ry="3.52"/><ellipse fill="url(#m)" transform="rotate(-30.001 3.656 4.343)" cx="3.656" cy="4.343" rx="1.23" ry="2.147"/></g><g transform="matrix(-1 0 0 1 176.689 220.07)" fill-rule="nonzero"><path fill="#A1A9C9" d="M5.55 7.348l4.177-2.49-5.95-3.433z"/><ellipse fill="#FFF" transform="rotate(-30.001 3.779 4.302)" cx="3.779" cy="4.302" rx="2.03" ry="3.52"/><ellipse fill="url(#m)" transform="rotate(-30.001 3.779 4.302)" cx="3.779" cy="4.302" rx="1.23" ry="2.147"/></g><g fill-rule="nonzero"><path fill="#151A2B" opacity=".165" filter="url(#n)" d="M.429 10.408L16.707.938 41.08 15.07l-16.249 9.441z" transform="matrix(-1 0 0 1 236.193 161.992)"/><path fill="#FFF" d="M236.164 171.6l-16.278-9.47-24.373 14.133 16.249 9.441z"/><g opacity=".8"><path fill="#64C8FF" d="M227.61 171.743l1.746.972 1.773-1.03-1.716-1.001z"/><path fill="#D3E0EF" d="M217.97 165.763l8.64 5.007 1.115-.658-8.64-5.007z"/><path fill="#E1EFFF" d="M202.78 174.546l8.639 4.978.772-.457-8.64-4.978zm-1.689.944l5.75 3.32.801-.459-5.75-3.318z"/><path fill="#D3E0EF" d="M215.824 166.993l11.7 6.752 1.116-.658-11.7-6.723z"/><path fill="#64C8FF" d="M215.967 170.255l-2.89-1.66.888-.514 2.918 1.659zm8.239 3.719l1.46.859-.916.514-1.46-.858z"/><path fill="#E1EFFF" d="M212.391 168.996l2.861 1.688-7.81 4.492-2.918-1.66zm10.127 5.951l1.46.858-7.753 4.463-1.545-.887z"/><path fill="#64C8FF" d="M217.455 170.083l6.15 3.548-.915.515-6.15-3.548z"/><path fill="#E1EFFF" d="M215.824 170.999l6.094 3.605-7.753 4.463-6.237-3.605z"/></g></g><path fill="url(#o)" fill-rule="nonzero" d="M124.708 111.728l12.845 24.92 57.273-33.045-12.902-25.148z" transform="matrix(-1 0 0 1 380.612 28)"/><path fill="#FFF" fill-rule="nonzero" d="M220.042 125.6l-8.064 15.673 27.76 16.102 7.992-15.587z"/><path stroke="#E7F3FF" stroke-width=".5" stroke-linecap="round" stroke-linejoin="round" d="M218.772 142.616l19.318 11.206 5.475-10.677"/><path d="M222.67 131.464c.24-.51.193-1.067-.105-1.244-.297-.176-.733.095-.972.606-.24.51-.194 1.067.104 1.244.297.176.733-.095.972-.606zm-2.402 4c.24-.51.193-1.067-.104-1.244-.297-.176-.733.095-.973.606-.24.51-.193 1.067.104 1.244.298.176.733-.095.973-.606zm-2.402 4c.24-.51.194-1.067-.104-1.244-.297-.176-.733.095-.972.606-.24.51-.194 1.067.104 1.244.297.176.733-.095.972-.606z" fill="#85EC88" fill-rule="nonzero"/><path d="M168.008 113.636L160.17 98.4l-27.065 15.823-.223-.435L160.57 97.6l8.064 15.673-.626.363z" fill="url(#p)" fill-rule="nonzero" transform="matrix(-1 0 0 1 380.612 28)"/><path d="M166.969 100l-2.468-4.748 16.735-9.652 2.477 4.776L166.97 100zm4.426.4l1.569 3.114-2.888 1.686-1.572-3.094 2.89-1.706zm2.401 5.2l1.57 3.114-2.889 1.686-1.572-3.094 2.891-1.706z" fill="url(#q)" fill-rule="nonzero" transform="matrix(-1 0 0 1 380.612 28)"/><path d="M2.89 0l1.57 3.114L1.572 4.8 0 1.706 2.89 0zm2.67 5.058l1.569 3.115L4.24 9.858 2.669 6.764l2.89-1.706z" transform="matrix(-1 0 0 1 207.623 125.817)" fill="url(#q)" fill-rule="nonzero"/><path d="M2.89 0l1.57 3.114L1.572 4.8 0 1.706 2.89 0zm2.67 5.058l1.569 3.115L4.24 9.858 2.669 6.764l2.89-1.706z" transform="matrix(-1 0 0 1 203.147 123.249)" fill="url(#q)" fill-rule="nonzero"/><path d="M2.89 0l1.57 3.114L1.572 4.8 0 1.706 2.89 0zm2.67 5.058l1.569 3.115L4.24 9.858 2.669 6.764l2.89-1.706z" transform="matrix(-1 0 0 1 198.9 120.8)" fill="url(#q)" fill-rule="nonzero"/><path fill="url(#r)" fill-rule="nonzero" d="M183.593 137.552l-35.102 20.313v-7.952l35.102-20.313z" transform="matrix(-1 0 0 1 380.612 28)"/><path fill="url(#s)" fill-rule="nonzero" d="M80.223 86.037l57.33-33.217 44.37 25.635-57.215 33.273z" transform="matrix(-1 0 0 1 380.612 28)"/><path fill="#FFF" fill-rule="nonzero" d="M376.771 103.994v-1.773L158.296 228.25l-.11 1.785z"/><path fill="url(#q)" fill-rule="nonzero" d="M147.08 171.38l1.516-2.117V150.58l35.102-20.313v8.469l11.107 6.473V103.55l-57.252 33.096v37.05z" transform="matrix(-1 0 0 1 380.612 28)"/><path fill="url(#t)" fill-rule="nonzero" d="M137.553 180.852l-57.33-33.13V86.039l44.485 25.691 12.845 24.92z" transform="matrix(-1 0 0 1 380.612 28)"/><g transform="matrix(-1 0 0 1 204.489 139.904)" fill-rule="nonzero"><ellipse fill="url(#u)" transform="rotate(-149.999 13.06 2.62)" cx="13.061" cy="2.62" rx="1" ry="1.431"/><path d="M6.278 5.692c.395-.684 1.037-1.053 1.433-.824.397.229.398.97.003 1.654-.395.685-1.037 1.054-1.433.825-.397-.23-.398-.97-.003-1.655z" fill="url(#v)"/><path d="M.381 1.956C.776 1.27 1.418.902 1.815 1.13c.396.23.398.97.002 1.654C1.422 3.47.781 3.84.384 3.61c-.396-.229-.397-.97-.003-1.654z" fill="url(#v)" transform="translate(0 7.2)"/><path d="M.782 1.156C1.177.47 1.818.102 2.215.33c.396.23.398.97.003 1.654C1.822 2.67 1.18 3.04.784 2.81.388 2.581.387 1.84.782 1.156z" fill="url(#w)" transform="translate(0 7.2)"/><ellipse fill="url(#x)" transform="rotate(-149.999 13.461 1.82)" cx="13.461" cy="1.82" rx="1" ry="1.431"/><path d="M6.678 4.892c.395-.684 1.037-1.053 1.433-.824.397.229.398.97.003 1.654-.395.685-1.037 1.054-1.433.825-.396-.23-.398-.97-.003-1.655z" fill="url(#y)"/></g><g fill-rule="nonzero"><path fill="#151A2B" opacity=".165" filter="url(#z)" d="M.515 10.636l16.249-9.47L41.138 15.3l-16.25 9.441z" transform="matrix(-1 0 0 1 193.57 186.135)"/><path fill="#FFF" d="M193.456 195.972l-16.25-9.47-24.373 14.133 16.249 9.441z"/><g opacity=".8"><path fill="#85EC88" d="M184.93 196.115l1.717 1.001 1.802-1.059-1.716-1z"/><path fill="#E1EFFF" d="M175.261 190.135l8.64 5.007 1.144-.658-8.64-4.978zm-15.191 8.783l8.64 4.979.8-.458-8.639-4.978zm-1.659.973l5.75 3.32.801-.459-5.75-3.318zm14.733-8.525l11.7 6.751 1.116-.657-11.7-6.724z"/><path fill="#85EC88" d="M173.287 194.627l-2.918-1.66.916-.514 2.889 1.659zm8.239 3.719l1.46.859-.916.515-1.46-.859z"/><path fill="#E1EFFF" d="M169.683 193.368l2.889 1.688-7.839 4.52-2.889-1.688zm10.127 5.952l1.459.857-7.724 4.463-1.545-.887z"/><path fill="#85EC88" d="M174.775 194.455l6.122 3.548-.887.515-6.15-3.548z"/><path fill="#E1EFFF" d="M173.116 195.371l6.093 3.605-7.753 4.463-6.208-3.576z"/></g></g><g transform="matrix(-1 0 0 1 159.483 134.718)" fill-rule="nonzero"><ellipse fill="url(#A)" cx="8.305" cy="23.201" rx="8.159" ry="5.035"/><path d="M8.098 4.886C3.926 4.886.491 2.921 0 .404l1.534 9.332h.061c.43 1.965 3.129 3.5 6.442 3.5 3.62 0 6.503-1.842 6.503-4.053L16.073.588c-.49 2.456-3.864 4.298-7.975 4.298z" transform="translate(.207 23.35)" fill="url(#B)"/><path d="M8.272 20c-3.693 0-6.671 1.848-6.671 4.113 0 .656.238 1.252.715 1.848 1.43 1.192 3.693 1.908 6.254 1.908 1.668 0 3.157-.298 4.467-.835 1.191-.715 1.907-1.788 1.907-2.92 0-2.266-2.978-4.114-6.672-4.114z" fill="#FFF"/><path d="M20.418 2.688C19.9-.493 17.435.208 15.985 1.362c-1.45 1.152-.639 4.028-1.629 4.918-.99.89-3.001.564-4.178 2.93s.385 2.957.065 4.209c-.32 1.251-3.089.16-4.05 3.916-.962 3.754 2.883 4.36 2.155 6.459a7.887 7.887 0 0 1-.213.54l.207.699c.084-.156.134-.253.134-.253s.418-.865 1.708-.764c2.445-.096 4.18-1.157 5.206-3.18 1.54-3.035-.83-3.452-.06-4.97.77-1.517 1.883-.66 3.06-3.026 1.177-2.366-1.1-3.14-.147-5.373.952-2.234 2.693-1.597 2.175-4.779z" fill="url(#C)"/></g><path fill="url(#D)" fill-rule="nonzero" opacity=".11" filter="url(#E)" d="M80.223 147.722l57.33 33.13v-20.965L80.223 89.44z" transform="matrix(-1 0 0 1 380.612 28)"/><path d="M229.214 131.798s.128.555.32 1.244l.535-.177a8.435 8.435 0 0 1-.446-2.09c-.204-2.453 4.087-2.044 4.087-6.337 0-4.293-3.27-3.884-3.27-5.315 0-1.432 1.84-1.636 1.227-4.498s-2.861-3.067-3.679-4.293c-.817-1.227.843-4.09-.396-5.725-1.238-1.635-3.69-3.066-5.12.205-1.431 3.27.612 3.066 1.02 5.724.41 2.658-2.247 2.862-1.634 5.724.613 2.863 2.044 2.25 2.452 4.09.409 1.84-2.247 1.635-1.43 5.315.545 2.453 2.116 4.068 4.712 4.844 1.411.245 1.622 1.289 1.622 1.289z" fill="url(#C)" fill-rule="nonzero" transform="matrix(-1 0 0 1 380.612 28)"/><g opacity=".3" fill-rule="nonzero"><path fill="url(#F)" opacity=".62" d="M43.568 9.744L33.99 4.212l-33.9 37.8v4.305l7.033 4.064z" transform="matrix(-1 0 0 1 300.478 129.403)"/><path fill="url(#G)" opacity=".62" d="M.09 30.105v6.99l30.995-34.56-4.13-2.386z" transform="matrix(-1 0 0 1 300.478 129.403)"/></g><path d="M229.01 131.39c.172.689.336 1.295.49 1.819l.908-.264-.785-1.965c-.41-4.006-.887-7.618-1.43-10.835-.606-3.581-2.281-8.44-2.861-13.084.15 4.31 1.509 8.564 2.247 13.084.395 2.418.872 6.166 1.43 11.244z" fill="url(#H)" fill-rule="nonzero" transform="matrix(-1 0 0 1 380.612 28)"/><path fill="#182F93" fill-rule="nonzero" opacity=".153" filter="url(#I)" d="M155.118 170.688v-11.835l31.545-18.407-3.846-2.41-34.258 19.74v16.694z" transform="matrix(-1 0 0 1 380.612 28)"/><g fill-rule="nonzero"><path fill="url(#J)" d="M98.21 48.774l-44.628 25.75v17.48L98.21 66.313z" transform="matrix(-1 0 0 1 348.78 147.523)"/><path fill="#FFF" d="M250.57 196.297l44.628 25.749 25.461-14.705-17.422-10.043 45.4-26.206-27.005-15.764z"/><path fill="#0DC4FF" opacity=".7" d="M320.66 199.845l-17.423-10.042 45.4-26.207-27.005-15.764-71.062 40.97 44.628 25.748z"/><path fill="#FFF" d="M250.57 188.801l44.628 25.75v.898L250.57 189.7z"/></g><path d="M274.687 198.815l19.224-11.101a1.497 1.497 0 0 1 1.545 0l8.84 5.092a.51.51 0 0 1 0 .887l-19.225 11.13a1.549 1.549 0 0 1-1.573 0l-8.84-5.122a.522.522 0 0 1 .029-.886z" fill="#FFF" fill-rule="nonzero"/><path d="M60.234 14.66L35.33.277c-.63-.37-1.409-.37-2.002 0L.334 2.876a.661.661 0 0 0 0 1.149l24.905 14.418c.63.37 1.408.37 2.039 0l32.993-2.635a.676.676 0 0 0-.037-1.149z" fill="url(#K)" fill-rule="nonzero" filter="url(#L)" transform="matrix(-1 0 0 1 335.4 175.2)" fill-opacity=".16" opacity=".529"/><g fill-rule="nonzero"><path d="M303.47 143.34l-1.573-.916-.03-.029c-.342-.171-.743-.2-1.115 0l-29.208 16.88a3.425 3.425 0 0 0-1.717 2.976v20.198c0 .458.258.801.601 1.001l1.602.916-.114-1.145 28.836-16.65a3.425 3.425 0 0 0 1.717-2.976V143.74l1.001-.4z" fill="#FFF"/><path d="M273.232 160.276l29.208-16.88a1.149 1.149 0 0 1 1.717 1.002v19.683c0 1.23-.658 2.346-1.717 2.976l-29.208 16.851a1.149 1.149 0 0 1-1.717-1.001v-19.684c.029-1.202.658-2.346 1.717-2.947z" fill="#FFF"/><path d="M31.142 18.276L1.933 1.396A1.149 1.149 0 0 0 .217 2.398V22.08c0 1.23.658 2.346 1.716 2.976l29.209 16.851a1.149 1.149 0 0 0 1.716-1.001V21.223c-.029-1.202-.658-2.346-1.716-2.947z" fill="url(#M)" transform="matrix(-1 0 0 1 304.373 142)"/><path d="M271.544 181.79v1.632c0 .887.944 1.43 1.716 1.001l29.209-16.851a3.425 3.425 0 0 0 1.716-2.976v-1.632l-32.641 18.826z" fill="#FFF"/></g><g fill-rule="nonzero"><path fill="url(#N)" d="M.07 84.28l32.47-18.813 25.13 14.52-32.405 18.845z" transform="matrix(-1 0 0 1 278.41 28)"/><path fill="url(#O)" d="M32.563.06L32.54.045.07 18.86l1.408.814L32.54 1.713l.023.013z" transform="matrix(-1 0 0 1 278.41 93.421)"/><path fill="url(#P)" d="M32.563 1.726l23.772 13.616 1.336-.777L32.563.06z" transform="matrix(-1 0 0 1 278.41 93.421)"/><path fill="url(#Q)" opacity=".232" d="M32.519 8.268l.02 57.2 25.132 14.518.044-57.166z" transform="matrix(-1 0 0 1 278.41 28)"/><path fill="url(#R)" opacity=".271" d="M32.519.09l.02 65.377L.048 84.313l.044-65.345z" transform="matrix(-1 0 0 1 278.41 28)"/><path fill="url(#Q)" opacity=".26" d="M57.734 14.89l.021 65.377-32.492 18.846.043-65.345z" transform="matrix(-1 0 0 1 278.41 28)"/><path fill="url(#Q)" opacity=".361" d="M.047 10.759l.02 73.554L25.2 98.832l.044-73.522z" transform="matrix(-1 0 0 1 278.41 28)"/></g><g transform="matrix(-1 0 0 1 170.672 220.167)" fill-rule="nonzero"><ellipse fill="#BAC2DB" transform="rotate(-30.001 8.124 9.394)" cx="8.124" cy="9.394" rx="4.539" ry="7.87"/><ellipse fill="#FFF" transform="rotate(-30.001 8.219 9.532)" cx="8.219" cy="9.532" rx="3.153" ry="5.467"/></g></g></g></g></g></svg>