<svg width="285" height="171" viewBox="0 0 285 171" xmlns="http://www.w3.org/2000/svg" xmlns:xlink="http://www.w3.org/1999/xlink"><defs><linearGradient x1="21.217%" y1="94.944%" x2="76.232%" y2="1.724%" id="a"><stop stop-color="#6AC7FF" offset="0%"/><stop stop-color="#2C96FF" offset="100%"/></linearGradient><path d="M27.096 86.31L53.56 71.04c.382-.22.852-.22 1.234 0l26.57 15.28a1.236 1.236 0 0 1 .005 2.139l-26.274 15.269c-.38.22-.85.223-1.233.004L27.1 88.452a1.236 1.236 0 0 1-.005-2.143z" id="b"/><filter x="-1.8%" y="-3%" width="103.5%" height="106%" filterUnits="objectBoundingBox" id="c"><feOffset dy="2" in="SourceAlpha" result="shadowOffsetInner1"/><feComposite in="shadowOffsetInner1" in2="SourceAlpha" operator="arithmetic" k2="-1" k3="1" result="shadowInnerInner1"/><feColorMatrix values="0 0 0 0 0 0 0 0 0 0.0988907271 0 0 0 0 0.68181335 0 0 0 0.5 0" in="shadowInnerInner1"/></filter><linearGradient x1="103.031%" y1="50%" x2="41.203%" y2="50%" id="d"><stop stop-color="#0F83DB" offset="0%"/><stop stop-color="#064CB5" offset="100%"/></linearGradient><linearGradient x1="103.031%" y1="50%" x2="41.203%" y2="50%" id="e"><stop stop-color="#63BCFF" offset="0%"/><stop stop-color="#98C1FF" offset="96.983%"/></linearGradient><path d="M165.983 109.632l25.395-14.669a1.186 1.186 0 0 1 1.185 0l25.498 14.679a1.186 1.186 0 0 1 .005 2.053l-25.214 14.669a1.186 1.186 0 0 1-1.185.004l-25.68-14.68a1.186 1.186 0 0 1-.004-2.056z" id="f"/><filter x="-1.8%" y="-3.1%" width="103.6%" height="106.3%" filterUnits="objectBoundingBox" id="g"><feOffset dy="2" in="SourceAlpha" result="shadowOffsetInner1"/><feComposite in="shadowOffsetInner1" in2="SourceAlpha" operator="arithmetic" k2="-1" k3="1" result="shadowInnerInner1"/><feColorMatrix values="0 0 0 0 0 0 0 0 0 0.0988907271 0 0 0 0 0.68181335 0 0 0 0.5 0" in="shadowInnerInner1"/></filter><linearGradient x1="21.217%" y1="94.944%" x2="77.25%" y2="0%" id="h"><stop stop-color="#6AC7FF" offset="0%"/><stop stop-color="#2C96FF" offset="98.184%"/></linearGradient><path d="M166.823 56.247l25.396-14.67a1.186 1.186 0 0 1 1.185 0l25.498 14.68a1.186 1.186 0 0 1 .004 2.053l-25.213 14.669a1.186 1.186 0 0 1-1.186.004l-25.679-14.68a1.186 1.186 0 0 1-.005-2.056z" id="i"/><filter x="-1.8%" y="-3.1%" width="103.6%" height="106.3%" filterUnits="objectBoundingBox" id="j"><feOffset dy="2" in="SourceAlpha" result="shadowOffsetInner1"/><feComposite in="shadowOffsetInner1" in2="SourceAlpha" operator="arithmetic" k2="-1" k3="1" result="shadowInnerInner1"/><feColorMatrix values="0 0 0 0 0 0 0 0 0 0.0988907271 0 0 0 0 0.68181335 0 0 0 0.5 0" in="shadowInnerInner1"/></filter><linearGradient x1="-12.659%" y1="141.889%" x2="38.297%" y2="50%" id="k"><stop stop-color="#7EDEFF" stop-opacity=".032" offset="0%"/><stop stop-color="#0041B1" offset="100%"/></linearGradient><filter x="-5.1%" y="-8.6%" width="110.3%" height="117.3%" filterUnits="objectBoundingBox" id="l"><feGaussianBlur stdDeviation=".922" in="SourceGraphic"/></filter><linearGradient x1="102.725%" y1="50%" x2="-173.828%" y2="50%" id="m"><stop stop-color="#09D1FF" offset="0%"/><stop stop-color="#1281F6" offset="100%"/></linearGradient><linearGradient x1="129.539%" y1="50%" x2="-12.734%" y2="50%" id="n"><stop stop-color="#5BE1FF" offset="0%"/><stop stop-color="#55D8FE" offset="17.29%"/><stop stop-color="#1281F6" offset="100%"/></linearGradient><linearGradient x1="556.151%" y1="661.43%" x2="0%" y2="0%" id="o"><stop stop-color="#9CE6FF" offset="0%"/><stop stop-color="#003289" offset="100%"/></linearGradient><path id="p" d="M16.005 15.199l18.97 5.018-8.477-11.109-1.678 5.013z"/><filter x="-5.3%" y="-9%" width="110.5%" height="118%" filterUnits="objectBoundingBox" id="q"><feOffset dy="2" in="SourceAlpha" result="shadowOffsetInner1"/><feComposite in="shadowOffsetInner1" in2="SourceAlpha" operator="arithmetic" k2="-1" k3="1" result="shadowInnerInner1"/><feColorMatrix values="0 0 0 0 0.0162772212 0 0 0 0 0.188190153 0 0 0 0 0.42051977 0 0 0 0.5 0" in="shadowInnerInner1"/></filter><filter x="-5.1%" y="-8.6%" width="110.3%" height="117.3%" filterUnits="objectBoundingBox" id="r"><feGaussianBlur stdDeviation=".922" in="SourceGraphic"/></filter><linearGradient x1="556.151%" y1="661.43%" x2="0%" y2="0%" id="s"><stop stop-color="#7EDEFF" offset="0%"/><stop stop-color="#003289" offset="100%"/></linearGradient><path d="M5.405 2.47l13.796 8.298-3.72 2.216c-1.091.65-2.74.72-3.685.157L1.351 6.921c-.945-.563-.826-1.545.265-2.195l3.79-2.257zm1.334-.795l.815-.486c1.092-.65 2.74-.72 3.685-.157l10.446 6.22c.944.562.826 1.545-.265 2.194l-.79.47-13.89-8.24z" id="t"/><filter x="-4.6%" y="-7.8%" width="109.3%" height="115.5%" filterUnits="objectBoundingBox" id="u"><feOffset dy="2" in="SourceAlpha" result="shadowOffsetInner1"/><feComposite in="shadowOffsetInner1" in2="SourceAlpha" operator="arithmetic" k2="-1" k3="1" result="shadowInnerInner1"/><feColorMatrix values="0 0 0 0 0.0162772212 0 0 0 0 0.188190153 0 0 0 0 0.42051977 0 0 0 0.5 0" in="shadowInnerInner1"/></filter><filter x="-5.1%" y="-8.6%" width="110.3%" height="117.3%" filterUnits="objectBoundingBox" id="v"><feGaussianBlur stdDeviation=".922" in="SourceGraphic"/></filter><path d="M1.583 11.048s-2.915-2.598-.65-5.92C2.706 2.528 7.717.264 7.717.264c2.76 2.001 8.26 2.12 8.26 2.12-.495 2.469 3.471 4.933 3.471 4.933-9.76 7.75-17.865 3.731-17.865 3.731zm9.993-4.598l-3.74-.02-.063-.72a.72.72 0 0 0-1.435.125l.12 1.371a.72.72 0 0 0 .713.656l4.396.024a.72.72 0 1 0 .009-1.436z" id="w"/><filter x="-5.2%" y="-8.5%" width="110.3%" height="116.9%" filterUnits="objectBoundingBox" id="x"><feOffset dy="2" in="SourceAlpha" result="shadowOffsetInner1"/><feComposite in="shadowOffsetInner1" in2="SourceAlpha" operator="arithmetic" k2="-1" k3="1" result="shadowInnerInner1"/><feColorMatrix values="0 0 0 0 0.0162772212 0 0 0 0 0.188190153 0 0 0 0 0.42051977 0 0 0 0.5 0" in="shadowInnerInner1"/></filter><filter x="-5.1%" y="-8.6%" width="110.3%" height="117.3%" filterUnits="objectBoundingBox" id="y"><feGaussianBlur stdDeviation=".922" in="SourceGraphic"/></filter><path d="M.744 7.138L12.598.286c.367-.212.82-.212 1.187 0l9.735 5.627a1.186 1.186 0 0 1 0 2.054l-11.292 6.528a1.147 1.147 0 0 1-1.55-.389l-.302-.487c-.18-.29-.477-.49-.815-.545l-1.816-.3a1.186 1.186 0 0 1-.859-.622l-.339-.65a1.186 1.186 0 0 0-.907-.63l-1.416-.175a1.186 1.186 0 0 1-.911-.637l-.344-.672a1.186 1.186 0 0 0-.78-.613L.94 8.477a.729.729 0 0 1-.196-1.34zM12.497 4.59l5.55 3.21a.721.721 0 0 0 .985-.26.717.717 0 0 0-.262-.982l-5.55-3.21a.721.721 0 0 0-.984.261.717.717 0 0 0 .261.981zM9.505 6.32l5.55 3.209a.721.721 0 0 0 .985-.261.717.717 0 0 0-.262-.981l-5.55-3.209a.721.721 0 0 0-.984.261.717.717 0 0 0 .261.981z" id="z"/><filter x="-4.2%" y="-6.9%" width="108.4%" height="113.8%" filterUnits="objectBoundingBox" id="A"><feOffset dy="2" in="SourceAlpha" result="shadowOffsetInner1"/><feComposite in="shadowOffsetInner1" in2="SourceAlpha" operator="arithmetic" k2="-1" k3="1" result="shadowInnerInner1"/><feColorMatrix values="0 0 0 0 0.0162772212 0 0 0 0 0.188190153 0 0 0 0 0.42051977 0 0 0 0.5 0" in="shadowInnerInner1"/></filter><filter x="-5.1%" y="-8.6%" width="110.3%" height="117.3%" filterUnits="objectBoundingBox" id="B"><feGaussianBlur stdDeviation=".922" in="SourceGraphic"/></filter><path d="M20.6 11.649c-4.713 2.665-12.354 2.665-17.066 0s-4.712-6.986 0-9.65c4.712-2.665 12.353-2.665 17.065 0 4.713 2.664 4.713 6.985 0 9.65z" id="C"/><filter x="-4.1%" y="-7.3%" width="108.3%" height="114.7%" filterUnits="objectBoundingBox" id="D"><feOffset dy="2" in="SourceAlpha" result="shadowOffsetInner1"/><feComposite in="shadowOffsetInner1" in2="SourceAlpha" operator="arithmetic" k2="-1" k3="1" result="shadowInnerInner1"/><feColorMatrix values="0 0 0 0 0.0162772212 0 0 0 0 0.188190153 0 0 0 0 0.42051977 0 0 0 0.5 0" in="shadowInnerInner1"/></filter><path d="M8.012 9.863l-1.897 1.013c-.266.142-.608.061-.765-.18-.156-.241-.067-.551.198-.693l5.834-3.114c.385-.21.372-.316-.023-1.105-.309-.619-.432-.984-.399-1.447.082-1.16.8-1.962 1.692-2.439.266-.141.608-.06.764.18.156.241.068.552-.198.694-.605.322-1.09.865-1.144 1.63-.017.245.066.49.302.964.153.306.27.573.342.81l4.162-2.222c.266-.142.608-.061.764.18.157.24.068.551-.198.693l-5.495 2.934a4.272 4.272 0 0 1-.044.023l-1.435.766c.187.033.377.075.859.183.716.16 1.125.229 1.618.246a8.046 8.046 0 0 0 2.734-.396 7.51 7.51 0 0 0 .727-.273c.122-.054.205-.095.241-.114.266-.143.608-.063.765.178.157.24.07.551-.196.694a7.353 7.353 0 0 1-1.164.47 9.25 9.25 0 0 1-3.149.453c-.588-.02-1.06-.098-1.845-.275-.61-.137-.724-.161-.974-.2-.767-.116-1.356-.037-2.06.339a.587.587 0 0 1-.016.008z" id="F"/><filter x="-8%" y="-11%" width="116.1%" height="143.9%" filterUnits="objectBoundingBox" id="E"><feOffset dy="2" in="SourceAlpha" result="shadowOffsetOuter1"/><feColorMatrix values="0 0 0 0 0.0156862745 0 0 0 0 0.188235294 0 0 0 0 0.419607843 0 0 0 0.378368433 0" in="shadowOffsetOuter1"/></filter><filter x="-5.1%" y="-8.6%" width="110.3%" height="117.3%" filterUnits="objectBoundingBox" id="G"><feGaussianBlur stdDeviation=".922" in="SourceGraphic"/></filter><path d="M10.577 6.9s-1.402 3.575 1.22 5.089c2.099 1.211 5.5 1.211 7.598 0 2.098-1.21 2.098-3.174 0-4.386-2.596-1.498-8.818-.703-8.818-.703z" id="H"/><filter x="-9.3%" y="-16.1%" width="118.6%" height="132.2%" filterUnits="objectBoundingBox" id="I"><feOffset dy="2" in="SourceAlpha" result="shadowOffsetInner1"/><feComposite in="shadowOffsetInner1" in2="SourceAlpha" operator="arithmetic" k2="-1" k3="1" result="shadowInnerInner1"/><feColorMatrix values="0 0 0 0 0.0162772212 0 0 0 0 0.188190153 0 0 0 0 0.42051977 0 0 0 0.5 0" in="shadowInnerInner1"/></filter><path d="M10.577 6.9s-6.195.809-8.818-.705c-2.098-1.21-2.098-3.174 0-4.386 2.099-1.21 5.5-1.21 7.597 0 2.596 1.498 1.22 5.09 1.22 5.09z" id="J"/><filter x="-9.3%" y="-16.1%" width="118.6%" height="132.2%" filterUnits="objectBoundingBox" id="K"><feOffset dy="2" in="SourceAlpha" result="shadowOffsetInner1"/><feComposite in="shadowOffsetInner1" in2="SourceAlpha" operator="arithmetic" k2="-1" k3="1" result="shadowInnerInner1"/><feColorMatrix values="0 0 0 0 0.0162772212 0 0 0 0 0.188190153 0 0 0 0 0.42051977 0 0 0 0.5 0" in="shadowInnerInner1"/></filter></defs><g fill="none" fill-rule="evenodd"><g opacity=".349" fill-rule="nonzero"><use fill="url(#a)" fill-rule="evenodd" xlink:href="#b"/><use fill="#000" filter="url(#c)" xlink:href="#b"/></g><g fill-rule="nonzero"><path d="M283.984 85.585a1.389 1.389 0 0 1-.368 2.07l-139.47 82.83c-.433.258-.972.26-1.408.005L.775 87.647a1.388 1.388 0 0 1-.378-2.074c.102.126.229.237.378.323l141.963 82.843c.436.255.975.253 1.409-.005l139.469-82.83c.14-.084.266-.192.368-.319z" fill="url(#d)" opacity=".2"/><path d="M.77 83.501L141.241.67a1.388 1.388 0 0 1 1.409-.001l140.96 82.844a1.388 1.388 0 0 1 .005 2.39l-139.47 82.831c-.433.258-.972.26-1.408.005L.775 85.896a1.388 1.388 0 0 1-.006-2.395z" fill="url(#e)" opacity=".078"/></g><g opacity=".349" fill-rule="nonzero"><use fill="url(#a)" fill-rule="evenodd" xlink:href="#f"/><use fill="#000" filter="url(#g)" xlink:href="#f"/></g><g opacity=".349" fill-rule="nonzero"><use fill="url(#h)" fill-rule="evenodd" xlink:href="#i"/><use fill="#000" filter="url(#j)" xlink:href="#i"/></g><path d="M2.38 27.93l24.83-14.662c.372-.219.834-.22 1.206 0l24.93 14.672a1.186 1.186 0 0 1 .005 2.041L28.698 44.642c-.37.22-.832.223-1.205.005L2.385 29.975a1.186 1.186 0 0 1-.004-2.045z" fill-opacity=".48" fill="url(#k)" fill-rule="nonzero" opacity=".25" filter="url(#l)" transform="translate(120.313 7.25)"/><path d="M1.377 22.04L26.773 7.37a1.186 1.186 0 0 1 1.185 0l25.498 14.68a1.186 1.186 0 0 1 .004 2.052L28.247 38.771a1.186 1.186 0 0 1-1.186.004L1.382 24.096a1.186 1.186 0 0 1-.005-2.057z" fill="url(#m)" fill-rule="nonzero" opacity=".2" transform="translate(120.313 7.25)"/><path d="M121.69 23.38l25.395-14.67a1.186 1.186 0 0 1 1.185 0l25.498 14.679a1.186 1.186 0 0 1 .005 2.053l-25.214 14.669a1.186 1.186 0 0 1-1.185.004l-25.68-14.68a1.186 1.186 0 0 1-.004-2.056z" fill="#2560BC" fill-rule="nonzero" opacity=".572"/><path d="M1.377 14.948L26.773.278a1.186 1.186 0 0 1 1.185 0l25.498 14.68a1.186 1.186 0 0 1 .004 2.053L28.247 31.68a1.186 1.186 0 0 1-1.186.004L1.382 17.004a1.186 1.186 0 0 1-.005-2.056z" fill="url(#n)" fill-rule="nonzero" opacity=".9" transform="translate(120.313 7.25)"/><g opacity=".7" transform="translate(120.313 7.25)"><use fill="url(#o)" xlink:href="#p"/><use fill="#000" filter="url(#q)" xlink:href="#p"/></g><path d="M2.38 27.93l24.83-14.662c.372-.219.834-.22 1.206 0l24.93 14.672a1.186 1.186 0 0 1 .005 2.041L28.698 44.642c-.37.22-.832.223-1.205.005L2.385 29.975a1.186 1.186 0 0 1-.004-2.045z" fill-opacity=".48" fill="url(#k)" fill-rule="nonzero" opacity=".25" filter="url(#r)" transform="translate(206.045 61.616)"/><path d="M1.377 22.04L26.773 7.37a1.186 1.186 0 0 1 1.185 0l25.498 14.68a1.186 1.186 0 0 1 .004 2.052L28.247 38.771a1.186 1.186 0 0 1-1.186.004L1.382 24.096a1.186 1.186 0 0 1-.005-2.057z" fill="url(#m)" fill-rule="nonzero" opacity=".2" transform="translate(206.045 61.616)"/><path d="M207.422 77.746l25.395-14.669a1.186 1.186 0 0 1 1.185 0l25.498 14.68a1.186 1.186 0 0 1 .005 2.052L234.29 94.478a1.186 1.186 0 0 1-1.185.004l-25.68-14.679a1.186 1.186 0 0 1-.004-2.057z" fill="#2560BC" fill-rule="nonzero" opacity=".572"/><path d="M1.377 14.948L26.773.278a1.186 1.186 0 0 1 1.185 0l25.498 14.68a1.186 1.186 0 0 1 .004 2.053L28.247 31.68a1.186 1.186 0 0 1-1.186.004L1.382 17.004a1.186 1.186 0 0 1-.005-2.056z" fill="url(#n)" fill-rule="nonzero" opacity=".9" transform="translate(206.045 61.616)"/><g transform="translate(222.643 71.072)" opacity=".7"><use fill="url(#s)" xlink:href="#t"/><use fill="#000" filter="url(#u)" xlink:href="#t"/></g><path d="M2.38 27.93l24.83-14.662c.372-.219.834-.22 1.206 0l24.93 14.672a1.186 1.186 0 0 1 .005 2.041L28.698 44.642c-.37.22-.832.223-1.205.005L2.385 29.975a1.186 1.186 0 0 1-.004-2.045z" fill-opacity=".48" fill="url(#k)" fill-rule="nonzero" opacity=".25" filter="url(#v)" transform="translate(116.756 115.983)"/><path d="M1.377 22.04L26.773 7.37a1.186 1.186 0 0 1 1.185 0l25.498 14.68a1.186 1.186 0 0 1 .004 2.052L28.247 38.771a1.186 1.186 0 0 1-1.186.004L1.382 24.096a1.186 1.186 0 0 1-.005-2.057z" fill="url(#m)" fill-rule="nonzero" opacity=".2" transform="translate(116.756 115.983)"/><path d="M118.133 132.113l25.396-14.669a1.186 1.186 0 0 1 1.185 0l25.498 14.68a1.186 1.186 0 0 1 .004 2.052l-25.213 14.669a1.186 1.186 0 0 1-1.186.004l-25.679-14.679a1.186 1.186 0 0 1-.005-2.057z" fill="#2560BC" fill-rule="nonzero" opacity=".572"/><path d="M1.377 14.948L26.773.278a1.186 1.186 0 0 1 1.185 0l25.498 14.68a1.186 1.186 0 0 1 .004 2.053L28.247 31.68a1.186 1.186 0 0 1-1.186.004L1.382 17.004a1.186 1.186 0 0 1-.005-2.056z" fill="url(#n)" fill-rule="nonzero" opacity=".9" transform="translate(116.756 115.983)"/><g transform="translate(136.268 125.439)" opacity=".7"><use fill="url(#s)" xlink:href="#w"/><use fill="#000" filter="url(#x)" xlink:href="#w"/></g><path d="M2.38 27.93l24.83-14.662c.372-.219.834-.22 1.206 0l24.93 14.672a1.186 1.186 0 0 1 .005 2.041L28.698 44.642c-.37.22-.832.223-1.205.005L2.385 29.975a1.186 1.186 0 0 1-.004-2.045z" fill-opacity=".48" fill="url(#k)" fill-rule="nonzero" opacity=".25" filter="url(#y)" transform="translate(122.684 62.798)"/><path d="M1.377 22.04L26.773 7.37a1.186 1.186 0 0 1 1.185 0l25.498 14.68a1.186 1.186 0 0 1 .004 2.052L28.247 38.771a1.186 1.186 0 0 1-1.186.004L1.382 24.096a1.186 1.186 0 0 1-.005-2.057z" fill="url(#m)" fill-rule="nonzero" opacity=".2" transform="translate(122.684 62.798)"/><path d="M124.061 78.928l25.395-14.669a1.186 1.186 0 0 1 1.185 0l25.498 14.679a1.186 1.186 0 0 1 .005 2.053L150.93 95.66a1.186 1.186 0 0 1-1.185.004l-25.68-14.68a1.186 1.186 0 0 1-.004-2.056z" fill="#2560BC" fill-rule="nonzero" opacity=".572"/><path d="M1.377 14.948L26.773.278a1.186 1.186 0 0 1 1.185 0l25.498 14.68a1.186 1.186 0 0 1 .004 2.053L28.247 31.68a1.186 1.186 0 0 1-1.186.004L1.382 17.004a1.186 1.186 0 0 1-.005-2.056z" fill="url(#n)" fill-rule="nonzero" opacity=".9" transform="translate(122.684 62.798)"/><g transform="translate(138.096 71.072)" opacity=".7"><use fill="url(#o)" xlink:href="#z"/><use fill="#000" filter="url(#A)" xlink:href="#z"/></g><path d="M2.38 27.93l24.83-14.662c.372-.219.834-.22 1.206 0l24.93 14.672a1.186 1.186 0 0 1 .005 2.041L28.698 44.642c-.37.22-.832.223-1.205.005L2.385 29.975a1.186 1.186 0 0 1-.004-2.045z" fill-opacity=".48" fill="url(#k)" fill-rule="nonzero" opacity=".25" filter="url(#B)" transform="translate(77.632 89.982)"/><path d="M1.377 22.04L26.773 7.37a1.186 1.186 0 0 1 1.185 0l25.498 14.68a1.186 1.186 0 0 1 .004 2.052L28.247 38.771a1.186 1.186 0 0 1-1.186.004L1.382 24.096a1.186 1.186 0 0 1-.005-2.057z" fill="url(#m)" fill-rule="nonzero" opacity=".2" transform="translate(77.632 89.982)"/><path d="M79.01 106.112l25.395-14.67a1.186 1.186 0 0 1 1.185 0l25.498 14.68a1.186 1.186 0 0 1 .004 2.053l-25.213 14.668a1.186 1.186 0 0 1-1.185.005l-25.68-14.68a1.186 1.186 0 0 1-.004-2.056z" fill="#2560BC" fill-rule="nonzero" opacity=".572"/><path d="M1.377 14.948L26.773.278a1.186 1.186 0 0 1 1.185 0l25.498 14.68a1.186 1.186 0 0 1 .004 2.053L28.247 31.68a1.186 1.186 0 0 1-1.186.004L1.382 17.004a1.186 1.186 0 0 1-.005-2.056z" fill="url(#n)" fill-rule="nonzero" opacity=".9" transform="translate(77.632 89.982)"/><g opacity=".7" transform="translate(93.045 99.437)"><use fill="url(#o)" xlink:href="#C"/><use fill="#000" filter="url(#D)" xlink:href="#C"/></g><g fill-rule="nonzero" transform="translate(93.045 99.437)"><use fill="#000" filter="url(#E)" xlink:href="#F"/><use fill="#43B7F7" fill-rule="evenodd" xlink:href="#F"/></g><path d="M2.38 27.93l24.83-14.662c.372-.219.834-.22 1.206 0l24.93 14.672a1.186 1.186 0 0 1 .005 2.041L28.698 44.642c-.37.22-.832.223-1.205.005L2.385 29.975a1.186 1.186 0 0 1-.004-2.045z" fill-opacity=".48" fill="url(#k)" fill-rule="nonzero" opacity=".25" filter="url(#G)" transform="translate(75.261 33.251)"/><path d="M1.377 22.04L26.773 7.37a1.186 1.186 0 0 1 1.185 0l25.498 14.68a1.186 1.186 0 0 1 .004 2.052L28.247 38.771a1.186 1.186 0 0 1-1.186.004L1.382 24.096a1.186 1.186 0 0 1-.005-2.057z" fill="url(#m)" fill-rule="nonzero" opacity=".2" transform="translate(75.261 33.251)"/><path d="M76.638 49.38l25.396-14.668a1.186 1.186 0 0 1 1.185-.001l25.498 14.68a1.186 1.186 0 0 1 .004 2.053l-25.213 14.669a1.186 1.186 0 0 1-1.185.004l-25.68-14.68a1.186 1.186 0 0 1-.005-2.056z" fill="#2560BC" fill-rule="nonzero" opacity=".572"/><path d="M1.377 14.948L26.773.278a1.186 1.186 0 0 1 1.185 0l25.498 14.68a1.186 1.186 0 0 1 .004 2.053L28.247 31.68a1.186 1.186 0 0 1-1.186.004L1.382 17.004a1.186 1.186 0 0 1-.005-2.056z" fill="url(#n)" fill-rule="nonzero" opacity=".9" transform="translate(75.261 33.251)"/><g stroke-linecap="round" stroke-linejoin="round" opacity=".7"><g transform="translate(91.917 42.75)"><use fill="url(#o)" xlink:href="#H"/><use fill="#000" filter="url(#I)" xlink:href="#H"/></g><g transform="translate(91.917 42.75)"><use fill="url(#o)" xlink:href="#J"/><use fill="#000" filter="url(#K)" xlink:href="#J"/></g></g></g></svg>